<?xml version="1.0" encoding="UTF-8"?>
<svg version="1.1" viewBox="0 0 647.6 102.1" xmlns="http://www.w3.org/2000/svg">
  <defs>
    <style>
      .cls-1 {
        fill: #231f20;
      }

      .cls-2 {
        fill: #faaf40;
      }
    </style>
  </defs>
  <!-- Generator: Adobe Illustrator 28.7.1, SVG Export Plug-In . SVG Version: 1.2.0 Build 142)  -->
  <g>
    <g id="Layer_1">
      <g>
        <path class="cls-2"
              d="M66,30.3v1.3c0,0-.2,1.8-.2,1.8l-.2,1.2-.5,2.4-.2,1.8-.2,1.2-.2,1.3-.3,1.2-.8,1.7-.6,1.1-2.2,3.6-.7,1-.8,1-.8.9-1.3,1.4-.9.8-1,.8-1,.7-1.4,1-1,.6-1.2.6-1.1.5-1.6.6-1.2.3-2.6.8-1.4.4-1.3.3-1.4.3-1.4.2h-1.4c0,0-4.3,0-4.3,0l-2.7-.2-2.6-.3-1.1-.2-1.2-.3-4.3-1.4-1.3-.4-1.4-.6-2.6-1.1-1.2-.6-1.2-.7-1-.8-1-.9-1-1-.9-1-2.2-2.2-.8-1-.8-1-.6-1-.6-1.6-1.2-3.6-.5-1.7-.2-1.2-.2-1.3-.2-1.2-.2-1.8v-1.2c0,0-.2-1.4-.2-1.4v-2.7c0,0,.2-1.4.2-1.4l.2-1.4.2-1.4.3-1.4.4-1.4.4-1.2.5-1.3.6-1.8.6-1.3.3-.7.6-1.2,1.1-1.8.8-1.1.4-.6,1-1,1.4-1.1,1-.8,1-.7,2.4-1.6,1-.6,1.1-.6,1.1-.6,1.7-.7,1.1-.4,1.2-.4,1.2-.3,3-.6,1.2-.2,4-.5,2.6-.2,2.4.2h1.9c0,0,1.4.2,1.4.2l1.4.2,1.4.3,1.4.2,1.3.3,1.2.3,1.2.4,1.7.6,1.1.5,2.6,1.5,1,.7,1,.8,1.4,1.3.9.8.9.9.7,1,1.1,1.5.6,1,.6,1,.6,1,.9,1.6.6,1,.6,1.2.4,1.1.4,1.8.5,2.4.2,1.4.2,1.4.2,2.7ZM46.5,40.7l.7-1.1.8-1.8.5-1.2.4-1.8.2-1.2.2-1.9v-2.7c0,0-.2-1.3-.2-1.3l-.5-2.4-.3-1.1-.9-1.8-.6-1-1.1-1.4-.8-.9-1.2-1.3-.9-.7-2.1-1.2-1.1-.5-1.3-.4-1.3-.2-2.6-.2h-1.2c0,0-1.8.2-1.8.2l-1.2.2-2.1.6-1.3.5-1.8,1-1.1.7-1.3,1.1-.9,1-.9,1.2-.6,1-.2.5-.7,1.7-.4,1.2-.2.6-.2,1.1-.2,1.1v1.1c0,0-.2,1.2-.2,1.2v2.5c0,0,.3,1.3.3,1.3v.7c0,0,.4,1.2.4,1.2l.2.6.4,1.1.3.6.6,1.1.4.6.9,1.1.5.6,1,1,1.6,1.4,1.1.7,1.3.6,1.2.5,1.7.6,1.2.2,2,.2h1.4c0,0,2,0,2,0l1.3-.2,1.8-.4,1.1-.5,1.8-1.1,1-.7,1.3-1.3.8-.9,1-1.3Z"/>
        <path class="cls-2"
              d="M127.4,59.5l-1,.3h-10c0,0-1.3,0-1.3,0l-3.6.2h-1l-.7-.3-.6-.6-2.6-3.6-.7-1-2.6-3.4-.7-1-2.2-3.7-.7-1-2.6-3.4-.6-.6-.5-.2h-1c0,0-2.6-.2-2.6-.2h-1c0,0-.6.6-.6.6l-.2,1-.2,4.4v1.3c0,0,.4,4.5.4,4.5v1.3c0,0,.2,1.9.2,1.9v2.6c0,0-.2,1-.2,1l-.4.4-.9.2h-1.3l-3.8-.2-3.7.2h-1.3l-3.7-.2-1-.2-.5-.3-.2-.8v-1.1c0,0-.2-1.2-.2-1.2l.2-2.1v-1.3c0,0,.4-4.3.4-4.3v-1.3l-.2-4.3v-1.3c0,0-.2-4.2-.2-4.2v-1.3l.2-4.3v-1.3l-.2-4.3v-1.3l.2-4.3v-1.3l.2-4.2v-5.6c0,0,0-1.3,0-1.3l-.2-2.6v-1.2c0,0,.2-.5.2-.5l.2-1,.5-.6,1-.2h.6c0,0,1.2-.2,1.2-.2l3.6.2,9.5.3,5.4-.3h1.3l5.3.3h4.4c0,0,1.2.3,1.2.3l1.7.5,1.2.4,1.2.5,1.3.5,1.2.6,1,.6,1.5,1,.9.7.8.8.8,1,1.1,1.6.7,1,1,1.5.6,1.1.6,1.2.4,1.3.2,1.3v1.3c0,0,.2,1.8.2,1.8v2.6c0,0-.2,1.4-.2,1.4l-.2,1.4-.3,1.3-.5,1.2-.6,1.2-.7,1.2-.7,1-.7,1-.7.9-1.3,1.3-.9.7-1.6.9-1,.6-1,.6-1,.2-.6.2.3.6,2.9,4.1.7,1,2.9,3.9.8,1,2.9,4,.8,1,2.5,2.9.7.9.4.9-.3.7ZM104.9,28.4l1-.4,1-.6.8-1,.6-1.2.3-1.3v-1.3c0,0,0-1.4,0-1.4l-.2-1.4-.3-1.2-.6-1.2-.7-1-.9-.7-1.1-.5-1.8-.4-1.3-.2h-4c0,0-1.3,0-1.3,0l-4.1.2h-1c0,0-.6.3-.6.3l-.5.5v.9c0,0,0,1.8,0,1.8l.2,1.3.2,1.4v1.4c0,0,0,4.4,0,4.4v.9c0,0,.2.5.2.5l.6.2,1,.2,4.2.3h1.3l5.3-.3,1.8-.3Z"/>
        <path class="cls-2"
              d="M189.9,32.5v1.4c0,0-.2,1.9-.2,1.9l-.2,1.3-.6,1.8-.4,1.3-.5,1.2-.5,1.3-.5,1.4-.5,1.2-.9,1.8-.6,1-1.1,1.3-.8.9-1.4,1.3-1.8,1.8-1,.9-1.5,1.2-1,.6-1.6.9-1,.5-1.8.6-1.2.4-1.3.3-1.3.2-4.9.7h-1.2c0,0-1.8.2-1.8.2h-3.8c0,0-2.1-.2-2.1-.2h-1.3l-2.6.2h-2c0,0-1.4.2-1.4.2h-1.2c0,0-5.6,0-5.6,0h-1.2c0,0-3.4-.4-3.4-.4l-.6-.3-.4-.4-.2-.9v-1.3c0,0,0-.6,0-.6l.2-2.4v-3c0,0,0-1.2,0-1.2v-1.3c0,0,0-1.3,0-1.3v-4.2c0,0,0-1.3,0-1.3l-.2-4.2v-1.2c0,0,.2-1.8.2-1.8l.2-1.2v-1.4c0,0,0-1.3,0-1.3l-.2-2.1v-1.4c0,0,0-.7,0-.7v-1.4c0,0,.2-4.2.2-4.2v-5.5c0,0,0-1.3,0-1.3l-.2-4.2v-4.4c0,0,.3-1.2.3-1.2l.2-.9.3-.5.9-.2,1.4-.2,1.2-.2h1.3c0,0,7,0,7,0h1.3l3.8.2h.6c0,0,1.4,0,1.4,0l3.4-.2h1.2c0,0,1.3,0,1.3,0l2,.2,2.6.2,1.3.2,2.1.3,1.3.2,1.2.3,2.9,1,1.2.6,1.2.6,1.1.6,2.6,1.8,1,.9,1,.8,1.8,1.7.8.8.7.9.6,1,.9,1.8.5,1.2.4,1.3.5,1.3.4,1.3.3,1.3.3,1.8.2,1.3.2,1.4.2,1.3v1.9c0,0,.2,1.3.2,1.3v1.4ZM171.7,39.4l.6-1.2.5-1.4.3-1.2.3-1.8v-1.1c0,0,.2-1.8.2-1.8v-3.8c0,0-.3-1.8-.3-1.8l-.3-1.2-.2-.5-.6-1.2-1.2-1.7-.4-.4-.8-.9-.9-.9-1-.7-1.8-1-1.1-.5-1.1-.2-1.3-.2h-2c0,0-1.4-.2-1.4-.2h-3.8c0,0-1.2,0-1.2,0l-1.8.2-.9.2-.4.4-.2,1v.7c0,0-.2,1.2-.2,1.2l.2,2.4v1.3c0,0,.2,1.8.2,1.8l.2,1.3v1.3c0,0,0,1.3,0,1.3v1.8c0,0,0,3.8,0,3.8v1.4c0,0-.2,1.3-.2,1.3l-.2,1.8v3c0,0,0,1.2,0,1.2l.2,1.9.3.9.5.4h1c0,0,7.4-.4,7.4-.4h1.8c0,0,1.3-.3,1.3-.3l1.4-.4,1.3-.5,1.2-.6,1-.7,1.4-1.3.8-1,1-1.5Z"/>
        <path class="cls-2"
              d="M244.3,52.3v1.3c0,0-.4,4.3-.4,4.3v.8c0,0-.4.6-.4.6l-.4.3-10.5.3h-1.3l-4.2-.3h-1.3c0,0-4.2.4-4.2.4h-1.3c0,0-5.5,0-5.5,0l-4.2-.3h-1.3l-6.9.4-2.7-.2-1-.2-.6-.4-.2-.6-.2-.9-.2-1.8v-1.3c0,0,0-1.2,0-1.2v-1.2l.3-4.2v-5.5c0,0,0-1.3,0-1.3l-.2-4.2v-1.3c0,0,0-4.3,0-4.3v-6.8l.3-4.2v-1.3c0,0-.3-4.2-.3-4.2v-1.3c0,0,0-1.9,0-1.9l.2-2.4v-1.2l.2-4.2v-1.1c0,0,.3-.6.3-.6l.4-.3h.6c0,0,1-.2,1-.2l5.2.3h4.9c0,0,1.3,0,1.3,0l4.8.3h1.3l4.8-.3h1.3l10.9.2h1.4c0,0,2.7-.3,2.7-.3h2l1.1.2.5.4.2.6.2,1v2.2l-.2,2v3.4c0,0,.2,1.2.2,1.2v1.2c0,0-.2,1-.2,1l-.3.6-.4.3-1,.2h-1.9c0,0-7.5,0-7.5,0h-1.3l-4.1.2h-1.3l-4.2-.2-3.6-.2h-1.8c0,0-.8.2-.8.2l-.4.4v.5c0,0-.2.9-.2.9l-.2,1.9v2.6c0,0,.2.9.2.9l.2.6.3.4.9.2,2.6.2,2.6-.2h7.6l9-.5,2.5.2.9.2.5.4.2.5v.9c0,0,.2,1.4.2,1.4v1.4c0,0,0,2.6,0,2.6l.2,1.8-.2,2.4-.2,1-.3.6-.6.4-.8.2h-1.6l-3.6-.4h-1.3c0,0-6.4.3-6.4.3l-5.1-.2h-1.3l-3.2-.2h-1.4c0,0-1,.2-1,.2l-.4.2-.2.6v1.2c0,0-.3,2-.3,2v1.3c0,0,0,1.8,0,1.8v.8c0,0,.3.6.3.6l.3.3h.9c0,0,4.4.2,4.4.2h1.3l4.3-.3,5.7.3h1.3l5.7-.3h2.4c0,0,2.9.4,2.9.4l.5.2.3.5v.9c0,0,.3,4.4.3,4.4Z"/>
        <path class="cls-2"
              d="M307.1,59.5l-1,.3h-10c0,0-1.3,0-1.3,0l-3.6.2h-1l-.7-.3-.6-.6-2.6-3.6-.7-1-2.6-3.4-.7-1-2.2-3.7-.7-1-2.6-3.4-.6-.6-.5-.2h-1c0,0-2.6-.2-2.6-.2h-1c0,0-.6.6-.6.6l-.2,1-.2,4.4v1.3c0,0,.4,4.5.4,4.5v1.3c0,0,.2,1.9.2,1.9v2.6c0,0-.2,1-.2,1l-.4.4-.9.2h-1.3l-3.8-.2-3.7.2h-1.3l-3.7-.2-1-.2-.5-.3-.2-.8v-1.1c0,0-.2-1.2-.2-1.2l.2-2.1v-1.3c0,0,.4-4.3.4-4.3v-1.3l-.2-4.3v-1.3c0,0-.2-4.2-.2-4.2v-1.3l.2-4.3v-1.3l-.2-4.3v-1.3l.2-4.3v-1.3l.2-4.2v-5.6c0,0,0-1.3,0-1.3l-.2-2.6v-1.2c0,0,.2-.5.2-.5l.2-1,.5-.6,1-.2h.6c0,0,1.2-.2,1.2-.2l3.6.2,9.5.3,5.4-.3h1.3l5.3.3h4.4c0,0,1.2.3,1.2.3l1.7.5,1.2.4,1.2.5,1.3.5,1.2.6,1,.6,1.5,1,.9.7.8.8.8,1,1.1,1.6.7,1,1,1.5.6,1.1.6,1.2.4,1.3.2,1.3v1.3c0,0,.2,1.8.2,1.8v2.6c0,0-.2,1.4-.2,1.4l-.2,1.4-.3,1.3-.5,1.2-.6,1.2-.7,1.2-.7,1-.7,1-.7.9-1.3,1.3-.9.7-1.6.9-1,.6-1,.6-1,.2-.6.2.3.6,2.9,4.1.7,1,2.9,3.9.8,1,2.9,4,.8,1,2.5,2.9.7.9.4.9-.3.7ZM284.6,28.4l1-.4,1-.6.8-1,.6-1.2.3-1.3v-1.3c0,0,0-1.4,0-1.4l-.2-1.4-.3-1.2-.6-1.2-.7-1-.9-.7-1.1-.5-1.8-.4-1.3-.2h-4c0,0-1.3,0-1.3,0l-4.1.2h-1c0,0-.6.3-.6.3l-.5.5v.9c0,0,0,1.8,0,1.8l.2,1.3.2,1.4v1.4c0,0,0,4.4,0,4.4v.9c0,0,.2.5.2.5l.6.2,1,.2,4.2.3h1.3l5.3-.3,1.8-.3Z"/>
        <path class="cls-1"
              d="M360.3,41.9v1.4c0,0-.2,1.4-.2,1.4l-.2,1.3-.4,1.8-.4,1.1-.7,1.6-.6,1-1,1.4-.8,1-1,1-1,.9-1.6,1-1,.7-1.2.6-1.1.6-1.8.6-2.4.8-1.3.2-2,.3-1.2.2-1.8.2h-1.1c0,0-1.8.2-1.8.2l-3.8.2h-2.9c0,0-1.8-.2-1.8-.2l-1.2-.2-1.4-.2-1.2-.4-1.8-.6-1.1-.6-1.2-.6-1.1-.6-1-.6-2.6-1.8-1-.8-1.4-1.1-1-.8-.9-.9-.6-.7v-.6c0,0,.3-.7.3-.7l.3-.4.8-.9,2.2-2.1.7-.9,1.4-2.1.7-.9.8-.9.9-.5.9.2.9.6,2.6,1.8,1.2.6,1.1.6,1.8.9,1.2.4,1.3.4,1.3.2h1.8c0,0,1.3.2,1.3.2l5-.3,1.3-.2.6-.2,1.2-.5,1-.6.8-.8.4-.6.5-1.2v-1.4c0,0-.2-.6-.2-.6l-.6-1.1-.4-.5-1-.8-.6-.2-1.2-.5-1.4-.3-1.4-.2-7.6-.7-2.4-.5-1.3-.3-1.8-.6-1.2-.4-1.2-.6-2.7-1.4-1-.7-1.2-.7-1-.7-1.4-1.1-.7-1-.7-1.2-.5-1.2-.6-1.7-.2-1.2-.2-1.8-.2-2.6v-1.3c0,0,.2-1.9.2-1.9l.2-1.2.3-1,.4-1.2.8-1.8.6-1.1.6-1,.8-.9,1.3-1.2,1-.8,1-.7,1.1-.6,1.5-.9,2.4-1,1.2-.4,1.8-.3,1.3-.2,2.4-.3,1.8-.3,1.3-.2h1.2c0,0,1.3,0,1.3,0l2.4.2,1.2.2.6.2,1.3.2,2.7.5,1.4.3,1.3.4,1.4.4,1.3.5,1.2.6,1.2.5,1.5.9,1.1.6,1,.7.7.7v.8l-.5.9-.9,1.6-.6,1-3,4-.9,1.1-1,.8-.6.2h-.6c0,0-.8-.5-.8-.5l-1.2-.7-1.2-.5-.6-.2-1.2-.4-.6-.2-1.4-.3-1.8-.4h-1.3c0,0-2.1-.2-2.1-.2h-3.4c0,0-1.4.3-1.4.3l-1.3.4-.5.2-1,.7-.4.5-.6,1.1-.2,1.3.2,1,.6,1,.9.8,1,.5.6.2,1.2.2,2,.2,2.7.2,1.4.2,2.7.6,2.6.8,1.8.4,1.2.3,2.2.8,1.6.7,1.1.6,1.1.6,1,.6,2.3,1.9.9,1,.8,1,1,1.4.6,1,.6,1.2.3,1.2.3,1.8.2,1.2v1.4Z"/>
        <path class="cls-1"
              d="M417.8,3l-.5.7-5.8,8.5-.8,1-2.7,3.7-.7,1-2.2,3.9-.7,1.1-2.5,3.7-.8,1.1-2.6,3.7-.8,1-2.6,3.7-.3.6v6.5l.3,4.3v1.3c0,0-.4,4.3-.4,4.3v1.3l.3,3.4v1.1c0,0-.2.6-.2.6l-.3.3-.7.2h-5.3l-9.4-.3-.3-.2-.2-.8v-11.1c0,0-.4-4.3-.4-4.3v-1.3c0,0,.2-4.3.2-4.3l-.2-.7-.6-.6-2.2-3.8-.7-1.1-2.6-3.6-.7-1.1-2.3-3.8-.6-1.1-5.6-8.5-.6-1.1-2.4-3.8-.6-1.1-2.3-3.8-.2-.7v-.4c0,0,.6-.3.6-.3h12c0,0,4.6.3,4.6.3h.9c0,0,.3.3.3.3l2.3,4,.6,1,2.4,3.6.6,1,2.1,3.7.7,1.1,2.2,3.4.6.7.5.2.6-.6,2-3.8.7-1,2.5-3.5.7-1,2-3.8.6-1.1,2.2-3.7.6-.8.6-.2h.9c0,0,4,.3,4,.3h1.3l4.6-.2h1.3l4.6.3,1,.2.4.2v.3Z"/>
        <path class="cls-1"
              d="M467.6,41.9v1.4c0,0-.2,1.4-.2,1.4l-.2,1.3-.4,1.8-.4,1.1-.7,1.6-.6,1-1,1.4-.8,1-1,1-1,.9-1.6,1-1,.7-1.2.6-1.1.6-1.8.6-2.4.8-1.3.2-2,.3-1.2.2-1.8.2h-1.1c0,0-1.8.2-1.8.2l-3.8.2h-2.9c0,0-1.8-.2-1.8-.2l-1.2-.2-1.4-.2-1.2-.4-1.8-.6-1.1-.6-1.2-.6-1.1-.6-1-.6-2.6-1.8-1-.8-1.4-1.1-1-.8-.9-.9-.6-.7v-.6c0,0,.3-.7.3-.7l.3-.4.8-.9,2.2-2.1.7-.9,1.4-2.1.7-.9.8-.9.9-.5.9.2.9.6,2.6,1.8,1.2.6,1.1.6,1.8.9,1.2.4,1.3.4,1.3.2h1.8c0,0,1.3.2,1.3.2l5-.3,1.3-.2.6-.2,1.2-.5,1-.6.8-.8.4-.6.5-1.2v-1.4c0,0-.2-.6-.2-.6l-.6-1.1-.4-.5-1-.8-.6-.2-1.2-.5-1.4-.3-1.4-.2-7.6-.7-2.4-.5-1.3-.3-1.8-.6-1.2-.4-1.2-.6-2.7-1.4-1-.7-1.2-.7-1-.7-1.4-1.1-.7-1-.7-1.2-.5-1.2-.6-1.7-.2-1.2-.2-1.8-.2-2.6v-1.3c0,0,.2-1.9.2-1.9l.2-1.2.3-1,.4-1.2.8-1.8.6-1.1.6-1,.8-.9,1.3-1.2,1-.8,1-.7,1.1-.6,1.5-.9,2.4-1,1.2-.4,1.8-.3,1.3-.2,2.4-.3,1.8-.3,1.3-.2h1.2c0,0,1.3,0,1.3,0l2.4.2,1.2.2.6.2,1.3.2,2.7.5,1.4.3,1.3.4,1.4.4,1.3.5,1.2.6,1.2.5,1.5.9,1.1.6,1,.7.7.7v.8l-.5.9-.9,1.6-.6,1-3,4-.9,1.1-1,.8-.6.2h-.6c0,0-.8-.5-.8-.5l-1.2-.7-1.2-.5-.6-.2-1.2-.4-.6-.2-1.4-.3-1.8-.4h-1.3c0,0-2.1-.2-2.1-.2h-3.4c0,0-1.4.3-1.4.3l-1.3.4-.5.2-1,.7-.4.5-.6,1.1-.2,1.3.2,1,.6,1,.9.8,1,.5.6.2,1.2.2,2,.2,2.7.2,1.4.2,2.7.6,2.6.8,1.8.4,1.2.3,2.2.8,1.6.7,1.1.6,1.1.6,1,.6,2.3,1.9.9,1,.8,1,1,1.4.6,1,.6,1.2.3,1.2.3,1.8.2,1.2v1.4Z"/>
        <path class="cls-1"
              d="M518.4,8.4v1.2c0,0,0,2.4,0,2.4v1.3c0,0-.2.6-.2.6l-.2,1-.2.6-.5.4-1,.2h-1.3l-2.4-.2h-1.3c0,0-3.7.2-3.7.2h-1.3l-2-.2h-1.8c0,0-.8.3-.8.3l-.3.5v1c0,0-.4,4.7-.4,4.7v1.3l.3,4.8v1.3c0,0-.4,4.8-.4,4.8v1.3c0,0,0,4.7,0,4.7v7.4l-.2,4.7v1.2c0,0,.5,3.6.5,3.6v1.3c0,0-.2,1-.2,1l-.4.4-1,.2h-1.5c0,0-2-.3-2-.3h-1.4c0,0-3.6.2-3.6.2h-1.3l-3.6-.2h-1c0,0-.5-.3-.5-.3l-.2-.9v-1.4l.2-3.4v-1.3c0,0,0-6,0-6v-4.8c0,0,0-1.3,0-1.3v-4.7c0,0,0-1.3,0-1.3l-.3-4.8v-1.3c0,0,0-6.1,0-6.1l-.2-4.7v-1.1l-.2-.6-.8-.2h-1.2l-2.6.2h-1.4l-2.2-.2h-1.4c0,0-1.4,0-1.4,0h-1.8c0,0-1.2,0-1.2,0h-.6c0,0-.9-.2-.9-.2l-.5-.3-.3-.5-.2-.8v-1.8c0,0,0-2.4,0-2.4v-1.2l-.2-3v-1.3c0,0,.3-1,.3-1l.3-.6.5-.2.8-.2h1.8l3,.2h1.3l4.6-.3h1.3l4.7.4h1.3l5.9-.4h4.6c0,0,1.3,0,1.3,0h6c0,0,5.9,0,5.9,0l2.6-.2h1.4c0,0,.6.2.6.2l1,.2.6.3.4.6.2,1v1.8c0,0,0,2.6,0,2.6Z"/>
        <path class="cls-1"
              d="M572.9,52.3v1.3c0,0-.4,4.3-.4,4.3v.8c0,0-.4.6-.4.6l-.4.3-10.5.3h-1.3l-4.2-.3h-1.3c0,0-4.2.4-4.2.4h-1.3c0,0-5.5,0-5.5,0l-4.2-.3h-1.3l-6.9.4-2.7-.2-1-.2-.6-.4-.2-.6-.2-.9-.2-1.8v-1.3c0,0,0-1.2,0-1.2v-1.2l.3-4.2v-5.5c0,0,0-1.3,0-1.3l-.2-4.2v-1.3c0,0,0-4.3,0-4.3v-6.8l.3-4.2v-1.3c0,0-.3-4.2-.3-4.2v-1.3c0,0,0-1.9,0-1.9l.2-2.4v-1.2l.2-4.2v-1.1c0,0,.3-.6.3-.6l.4-.3h.6c0,0,1-.2,1-.2l5.2.3h4.9c0,0,1.3,0,1.3,0l4.8.3h1.3l4.8-.3h1.3l10.9.2h1.4c0,0,2.7-.3,2.7-.3h2l1.1.2.5.4.2.6.2,1v2.2l-.2,2v3.4c0,0,.2,1.2.2,1.2v1.2c0,0-.2,1-.2,1l-.3.6-.4.3-1,.2h-1.9c0,0-7.5,0-7.5,0h-1.3l-4.1.2h-1.3l-4.2-.2-3.6-.2h-1.8c0,0-.8.2-.8.2l-.4.4v.5c0,0-.2.9-.2.9l-.2,1.9v2.6c0,0,.2.9.2.9l.2.6.3.4.9.2,2.6.2,2.6-.2h7.6l9-.5,2.5.2.9.2.5.4.2.5v.9c0,0,.2,1.4.2,1.4v1.4c0,0,0,2.6,0,2.6l.2,1.8-.2,2.4-.2,1-.3.6-.6.4-.8.2h-1.6l-3.6-.4h-1.3c0,0-6.4.3-6.4.3l-5.1-.2h-1.3l-3.2-.2h-1.4c0,0-1,.2-1,.2l-.4.2-.2.6v1.2c0,0-.3,2-.3,2v1.3c0,0,0,1.8,0,1.8v.8c0,0,.3.6.3.6l.3.3h.9c0,0,4.4.2,4.4.2h1.3l4.3-.3,5.7.3h1.3l5.7-.3h2.4c0,0,2.9.4,2.9.4l.5.2.3.5v.9c0,0,.3,4.4.3,4.4Z"/>
        <path class="cls-1"
              d="M646.6,52.6v1.3c0,0,.4,2.5.4,2.5v1.2c0,0,0,.6,0,.6v.9c0,0-.5.6-.5.6l-.5.4-.9.2h-1.2c0,0-1.3,0-1.3,0l-3.2-.2h-1.4c0,0-2,0-2,0h-1.4c0,0-3-.5-3-.5l-.6-.2-.3-.4v-.8c0,0-.2-1.1-.2-1.1v-1.2c0,0,0-2.7,0-2.7v-7.5l-.2-5v-1.3l.3-5v-6.2l-.2-1-.5-.3h-.5l-.6.7-.8,1.1-3.4,3.8-4.9,5.8-3.2,4-.7.6-.6.2h-.6l-.9-.2-1-.2-.9-.6-4-4.8-3-3.9-.8-1-4.2-4.6-1-1-.5.2-.2.9-.2,5v1.3l.3,5v1.3l.2,5v6.2c0,0,0,1.2,0,1.2v2.4c0,0,0,1.3,0,1.3v1.4c0,0-.2,1-.2,1l-.3.5-.6.2-2.1.2h-1.3c0,0-3.1-.2-3.1-.2h-1.3c0,0-3.8.4-3.8.4h-1.8l-1-.2-.5-.5-.2-.6-.2-.8v-1.8l.2-2.5v-12.3l-.2-4.2v-5.5c0,0,0-1.3,0-1.3l-.2-4.3v-1.3l.2-4.2v-1.3c0,0-.2-4.2-.2-4.2v-1.3c0,0,.4-4.2.4-4.2v-1.3l-.3-3v-1.3l.2-1,.3-.6.5-.4.6-.2h1c0,0,1.4,0,1.4,0l1.8.4h1.3l2.5-.2,1.4-.2h1.2c0,0,3,0,3,0h1l.9.4.8.9,2.8,3.1.8,1,2.3,3.3.8,1,2.6,3.1.8,1.1,2.5,3.1.8.9.7.4h.8l.7-.4.7-.8,2.4-3.2.8-1.1,2.6-3.1.8-1,2.8-3.1.8-1,2.1-2.6.6-.9.6-.6.8-.4h1c0,0,4.2.3,4.2.3h3.8c0,0,1.3,0,1.3,0l2.4-.2h1.4c0,0,1,.2,1,.2l.6.2.5.4.2.6v1c0,0-.4,3.6-.4,3.6v1.3c0,0,0,4.2,0,4.2v5.5c0,0,0,1.3,0,1.3v4.2c0,0,0,1.3,0,1.3l.3,4.3v1.3l-.3,4.2v1.3l.2,4.2v1.3l-.3,4.2v1.3l-.2,4.2Z"/>
      </g>
      <g>
        <path class="cls-1"
              d="M131,88v.6s-.1.8-.1.8v.5c0,0-.3,1-.3,1v.8c0,0-.1.5-.1.5v.6c-.1,0-.2.5-.2.5l-.4.7-.2.5-1,1.6-.3.5-.4.5-.4.4-.6.6-.4.4-.5.4-.4.3-.6.4-.5.3-.5.3-.5.2-.7.3h-.5c0,.1-1.1.5-1.1.5l-.6.2h-.6c0,.1-.6.3-.6.3h-.6c0,.1-.6.1-.6.1h-3.1c0,0-1.2-.2-1.2-.2h-.5c0-.1-.5-.2-.5-.2l-1.9-.6-.6-.2-.6-.2-1.1-.5-.5-.3-.5-.3-.5-.4-.5-.4-.4-.5-.4-.5-.9-1-.4-.4-.4-.5-.3-.5-.3-.7-.5-1.6-.2-.7v-.5c-.1,0-.2-.6-.2-.6v-.5c-.1,0-.2-.8-.2-.8v-.5s0-.6,0-.6v-1.2s0-.6,0-.6v-.6c0,0,.2-.6.2-.6v-.6c.1,0,.3-.6.3-.6l.2-.5.2-.6.2-.8.2-.6v-.3c.1,0,.4-.5.4-.5l.5-.8.4-.5.2-.3.4-.4.6-.5.5-.4.5-.3,1-.7.5-.3.5-.3.5-.2.7-.3.5-.2.5-.2h.5c0-.1,1.3-.4,1.3-.4h.5c0-.1,1.8-.3,1.8-.3h1.1c0,0,1,0,1,0h.8s.6.1.6.1h.6c0,.1.6.2.6.2h.6c0,.1.6.2.6.2h.5c0,.1.5.3.5.3l.7.3.5.2,1.2.7.5.3.5.4.6.6.4.4.4.4.3.4.5.7.3.5.2.5.3.5.4.7.3.5.2.5.2.5.2.8.2,1v.6c0,0,.2.6.2.6v1.2ZM123.7,88.6v-1.2s0-.6,0-.6l-.2-1v-.5c-.1,0-.5-.8-.5-.8l-.3-.5-.5-.6-.4-.4-.5-.6-.4-.3-.9-.5-.5-.2-.6-.2h-.6c0-.1-1.1-.2-1.1-.2h-.5s-.8,0-.8,0h-.5c0,.1-.9.4-.9.4l-.6.2-.8.4-.5.3-.6.5-.4.4-.4.5-.3.5v.2c-.1,0-.4.7-.4.7l-.2.5v.2c-.1,0-.2.5-.2.5v.5c0,0-.1.5-.1.5v.5s0,.5,0,.5v.6s.1.6.1.6v.3s.2.5.2.5v.2c0,0,.2.5.2.5v.3c.1,0,.4.5.4.5l.2.3.4.5.2.2.4.4.7.6.5.3.6.3.5.2.7.2h.5c0,.1.9.2.9.2h.6s.9,0,.9,0h.6c0,0,.8-.2.8-.2l.5-.2.8-.5.4-.3.6-.6.4-.4.5-.6.3-.5.4-.8.2-.5.2-.8v-.5c0,0,.1-.9.1-.9Z"/>
        <path class="cls-1"
              d="M157.9,100.8h-.5c0,.1-2.5.1-2.5.1h-1.9s-.6,0-.6,0h-1.6c0,0-.5,0-.5,0h-.3c0-.1-.3-.4-.3-.4l-1.1-1.6-.3-.4-1.1-1.5-.3-.4-1-1.6-.3-.4-1.1-1.5-.2-.3h-.2c0-.1-.4-.1-.4-.1h-1.1c0,0-.5,0-.5,0l-.3.2v.5c-.1,0-.2,1.9-.2,1.9v.6s.2,2,.2,2v.6s0,.8,0,.8v1.1s-.1.4-.1.4l-.2.2h-.4c0,.1-.6.1-.6.1h-1.7c0-.1-1.6,0-1.6,0h-2.2c0-.1-.4-.2-.4-.2h-.2c0-.1,0-.5,0-.5v-.5s0-.5,0-.5v-.9c0,0,.1-.6.1-.6v-1.9c.1,0,.1-.6.1-.6v-1.9c-.1,0-.1-.6-.1-.6v-1.9s0-.6,0-.6v-1.9c.1,0,.1-.6.1-.6v-1.9c-.1,0-.1-.6-.1-.6v-1.9c.1,0,.1-.6.1-.6v-1.9c0,0,0-.6,0-.6v-1.9s0-.6,0-.6v-1.2c0,0,0-.5,0-.5v-.2s.1-.5.1-.5l.2-.3h.4c0-.1.3-.1.3-.1h.5s1.6,0,1.6,0h4.2c0,.1,2.4,0,2.4,0h2.9c0,.1,1.3.1,1.3.1h.6s.5.1.5.1l.7.2.5.2.5.2.6.2.5.2.5.3.7.5.4.3.4.4.4.4.5.7.3.5.4.7.2.5.2.5.2.6v.6c.1,0,.1.6.1.6v.8c0,0,0,.6,0,.6v.6s-.1.6-.1.6v.6c-.1,0-.2.6-.2.6l-.2.5-.2.5-.3.5-.3.5-.3.4-.3.4-.6.6-.4.3-.7.4-.4.2-.5.2h-.5c0,.1-.3.2-.3.2v.3c.1,0,1.4,1.8,1.4,1.8l.3.4,1.3,1.7.4.4,1.3,1.8.4.4,1.1,1.3.3.4.2.4v.3ZM148.1,87.2l.5-.2.4-.2.4-.4.2-.5v-.6c.1,0,.2-.6.2-.6v-.6s-.1-.6-.1-.6v-.5c-.1,0-.4-.5-.4-.5l-.3-.4-.4-.3-.5-.2-.8-.2h-.6c0,0-1.8-.1-1.8-.1h-2.4c0,.1-.4.1-.4.1h-.2c0,.1-.2.3-.2.3v.4s0,.8,0,.8v.6c0,0,.1.6.1.6v.6s0,1.9,0,1.9v.4s.1.2.1.2h.2c0,.1.4.2.4.2h1.8c0,.1.6.1.6.1h2.3c0-.1.8-.3.8-.3Z"/>
        <path class="cls-1"
              d="M185.2,89v.6s0,.8,0,.8v.6c-.1,0-.4.8-.4.8l-.2.6-.2.5-.2.6-.2.6-.2.5-.4.8-.3.5-.5.6-.4.4-.6.6-.8.8-.5.4-.7.5-.5.3-.7.4-.5.2-.8.3-.5.2h-.6c0,.1-.6.2-.6.2l-2.1.3h-.5s-.8.1-.8.1h-1.7s-.9-.1-.9-.1h-1.7c0,0-.9.1-.9.1h-.6s-.5,0-.5,0h-3s-1.5-.2-1.5-.2h-.3c0-.1-.2-.3-.2-.3v-.4c0,0-.1-.6-.1-.6v-.3s.1-1,.1-1v-1.3s0-.5,0-.5v-.6s0-.6,0-.6v-1.9s0-.6,0-.6v-1.9c0,0,0-.5,0-.5v-.8s.1-.5.1-.5v-.6s0-.6,0-.6v-.9c0,0-.1-.6-.1-.6v-.9s.1-1.9.1-1.9v-2.4s0-.6,0-.6v-1.9c-.1,0-.1-1.4-.1-1.4v-.6s.1-.5.1-.5v-.4c0,0,.2-.2.2-.2h.4c0-.1.6-.2.6-.2h.5c0,0,.6-.1.6-.1h3.1s.6,0,.6,0h1.7c0,.1.3.1.3.1h2.1c0,0,.5-.1.5-.1h1.4c0,0,1.1.1,1.1.1h.6c0,0,.9.2.9.2h.6c0,.1.5.2.5.2l1.3.5.5.2.5.3.5.3,1.2.8.5.4.4.4.8.7.4.4.3.4.2.5.4.8.2.5.2.6.2.6.2.6v.6c.1,0,.3.8.3.8v.6c.1,0,.2.6.2.6v.6c0,0,.1.8.1.8v.6s0,.6,0,.6ZM177.3,92l.2-.5.2-.6v-.5c.1,0,.3-.8.3-.8v-.5s0-.8,0-.8v-1.7s-.1-.8-.1-.8v-.5c-.1,0-.2-.2-.2-.2l-.3-.5-.5-.7-.2-.2-.4-.4-.4-.4-.4-.3-.8-.5-.5-.2h-.5c0-.1-.6-.2-.6-.2h-.9s-.6,0-.6,0h-1.6s-.5,0-.5,0h-.8c0,.1-.4.2-.4.2l-.2.2v.4c-.1,0-.1.3-.1.3v.5s0,1,0,1v.6s.1.8.1.8v.6c0,0,.1.6.1.6v1.3s0,1.7,0,1.7v.6s0,.6,0,.6v.8c0,0,0,.5,0,.5v.8s0,.5,0,.5v.8c.1,0,.2.4.2.4l.2.2h.4s3.3-.2,3.3-.2h.8s.6-.1.6-.1l.6-.2.6-.2.5-.2.5-.3.6-.6.4-.4.4-.6Z"/>
        <path class="cls-1"
              d="M209,97.7v.6s-.2,1.9-.2,1.9v.4s-.2.2-.2.2h-.2c0,.1-4.6.3-4.6.3h-2.4c0-.1-.6-.1-.6-.1h-1.8c0,.1-.6.2-.6.2h-4.2c0-.1-.6-.1-.6-.1l-3,.2h-1.2c0,0-.4-.1-.4-.1l-.2-.2v-.2c-.1,0-.2-.4-.2-.4v-.8c0,0-.1-.6-.1-.6v-.5s0-.5,0-.5v-1.9c.1,0,.1-.6.1-.6v-1.9s0-.6,0-.6v-1.9c-.1,0-.1-.6-.1-.6v-1.9c0,0,0-3,0-3v-1.9c.1,0,.1-.6.1-.6v-1.9c-.1,0-.1-.6-.1-.6v-1.9c0,0,0-.5,0-.5v-1.8c.1,0,.1-.5.1-.5v-.3c.1,0,.3-.1.3-.1h.3s.5-.1.5-.1h2.3c0,.1,2.1.1,2.1.1h2.7c0,.1.6.1.6.1h2.1c0-.1.6-.1.6-.1h4.8c0,0,.6,0,.6,0h1.2c0-.1.9-.1.9-.1h.5c0,.1.2.3.2.3v.2c0,0,.1.5.1.5v1.8c0,0,0,.6,0,.6v.9s0,.5,0,.5v.5s-.1.4-.1.4v.2c-.1,0-.3.1-.3.1h-.4c0,0-.3,0-.3,0h-.6s-3.3,0-3.3,0h-2.4c0,0-.6,0-.6,0h-1.8c0,0-1.6-.2-1.6-.2h-.8s-.4.1-.4.1l-.2.2v.2s-.1.4-.1.4v.8c0,0,0,.6,0,.6v.6s0,.4,0,.4v.2c0,0,.2.2.2.2h.4c0,.1,1.1.2,1.1.2h1.1c0,0,3.3,0,3.3,0l3.9-.2h1.1c0,0,.4.1.4.1l.2.2v.2c.1,0,.1.4.1.4v.6c0,0,.1.6.1.6v2c0,0,0,1,0,1v.4c0,0-.2.2-.2.2l-.2.2h-.4c0,0-.7,0-.7,0l-1.6-.2h-.6s-2.8.1-2.8.1h-2.2c0,0-.6,0-.6,0h-1.4c0-.1-.6,0-.6,0h-.4s-.2.1-.2.1v.2c-.1,0-.1.5-.1.5v.9c-.1,0-.1.6-.1.6v1.1s.1.2.1.2h.1c0,.1.4.2.4.2h1.9c0,0,.6,0,.6,0h1.9c0-.1,2.5,0,2.5,0h3c0-.1.5-.1.5-.1h.5s1.3.2,1.3.2h.2c0,.1.1.3.1.3v.4s.1,1.9.1,1.9Z"/>
        <path class="cls-1"
              d="M236.5,100.8h-.5c0,.1-2.5.1-2.5.1h-1.9s-.6,0-.6,0h-1.6c0,0-.5,0-.5,0h-.3c0-.1-.3-.4-.3-.4l-1.1-1.6-.3-.4-1.1-1.5-.3-.4-1-1.6-.3-.4-1.1-1.5-.2-.3h-.2c0-.1-.4-.1-.4-.1h-1.1c0,0-.5,0-.5,0l-.3.2v.5c-.1,0-.2,1.9-.2,1.9v.6s.2,2,.2,2v.6s0,.8,0,.8v1.1s-.1.4-.1.4l-.2.2h-.4c0,.1-.6.1-.6.1h-1.7c0-.1-1.6,0-1.6,0h-2.2c0-.1-.4-.2-.4-.2h-.2c0-.1,0-.5,0-.5v-.5s0-.5,0-.5v-.9c0,0,.1-.6.1-.6v-1.9c.1,0,.1-.6.1-.6v-1.9c-.1,0-.1-.6-.1-.6v-1.9s0-.6,0-.6v-1.9c.1,0,.1-.6.1-.6v-1.9c-.1,0-.1-.6-.1-.6v-1.9c.1,0,.1-.6.1-.6v-1.9c0,0,0-.6,0-.6v-1.9s0-.6,0-.6v-1.2c0,0,0-.5,0-.5v-.2s.1-.5.1-.5l.2-.3h.4c0-.1.3-.1.3-.1h.5s1.6,0,1.6,0h4.2c0,.1,2.4,0,2.4,0h2.9c0,.1,1.3.1,1.3.1h.6s.5.1.5.1l.7.2.5.2.5.2.6.2.5.2.5.3.7.5.4.3.4.4.4.4.5.7.3.5.4.7.2.5.2.5.2.6v.6c.1,0,.1.6.1.6v.8c0,0,0,.6,0,.6v.6s-.1.6-.1.6v.6c-.1,0-.2.6-.2.6l-.2.5-.2.5-.3.5-.3.5-.3.4-.3.4-.6.6-.4.3-.7.4-.4.2-.5.2h-.5c0,.1-.3.2-.3.2v.3c.1,0,1.4,1.8,1.4,1.8l.3.4,1.3,1.7.4.4,1.3,1.8.4.4,1.1,1.3.3.4.2.4v.3ZM226.7,87.2l.5-.2.4-.2.4-.4.2-.5v-.6c.1,0,.2-.6.2-.6v-.6s-.1-.6-.1-.6v-.5c-.1,0-.4-.5-.4-.5l-.3-.4-.4-.3-.5-.2-.8-.2h-.6c0,0-1.8-.1-1.8-.1h-2.4c0,.1-.4.1-.4.1h-.2c0,.1-.2.3-.2.3v.4s0,.8,0,.8v.6c0,0,.1.6.1.6v.6s0,1.9,0,1.9v.4s.1.2.1.2h.2c0,.1.4.2.4.2h1.8c0,.1.6.1.6.1h2.3c0-.1.8-.3.8-.3Z"/>
        <path class="cls-2"
              d="M245.3,98.6v.6c-.1,0-.3.6-.3.6l-.2.5-.3.5-.5.4-.5.3-.5.2h-.6c0,0-.6.1-.6.1h-.9s-.5,0-.5,0h-.2c0,0-.6-.2-.6-.2l-.6-.3-.5-.4v-.2c-.1,0-.5-.4-.5-.4v-.2c-.1,0-.3-.5-.3-.5v-.2c0,0-.2-.5-.2-.5v-1.4c.1,0,.2-.2.2-.2l.2-.4v-.2c.1,0,.4-.4.4-.4v-.2c.1,0,.6-.4.6-.4l.6-.4.5-.2h.2c0-.1.5-.2.5-.2h1.5c0,.1.5.3.5.3l.5.3.5.3.5.4.4.4.2.5.2.6v.6c.1,0,.1.6.1.6Z"/>
        <path class="cls-1"
              d="M284.1,93.1v.6s-.1.6-.1.6v.6c-.1,0-.3.8-.3.8l-.2.5-.3.7-.2.5-.4.6-.4.4-.4.4-.4.4-.7.5-.5.3-.5.3-.5.2-.8.3-1,.4h-.6c0,.1-.9.2-.9.2h-.5c0,0-.8.1-.8.1h-.5s-.8,0-.8,0h-1.7c0,.1-.8.1-.8.1h-.5s-.8-.1-.8-.1h-.5c0,0-.6-.2-.6-.2l-.5-.2-.8-.2-.5-.2-.5-.2-.5-.2-.5-.3-1.1-.8-.4-.4-.6-.5-.4-.4-.4-.4-.3-.3v-.2s.1-.3.1-.3v-.2c.1,0,.5-.4.5-.4l1-.9.3-.4.6-.9.3-.4.4-.4.4-.2h.4c0,0,.4.4.4.4l1.1.8.5.3.5.2.8.4.5.2.6.2h.6c0,.1.8.1.8.1h.6s2.2-.1,2.2-.1h.6c0,0,.3-.1.3-.1l.5-.2.5-.3.4-.4.2-.2.2-.5v-.6s-.1-.3-.1-.3l-.3-.5-.2-.2-.5-.4h-.3c0-.1-.5-.3-.5-.3h-.6c0-.1-.6-.2-.6-.2l-3.3-.3-1-.2h-.6c0-.1-.8-.4-.8-.4l-.5-.2-.5-.2-1.2-.6-.5-.3-.5-.3-.5-.3-.6-.5-.3-.5-.3-.5-.2-.5-.2-.7v-.5c-.1,0-.2-.8-.2-.8v-1.1c0,0,0-.6,0-.6v-.8c0,0,.2-.5.2-.5v-.5c.1,0,.3-.5.3-.5l.4-.8.2-.5.3-.4.4-.4.6-.5.5-.4.5-.3.5-.2.7-.4,1-.4.5-.2h.8c0-.1.6-.2.6-.2h1c0-.1.8-.3.8-.3h.6c0,0,.5-.1.5-.1h1.6c0,.1.5.2.5.2h.2c0,0,.6.1.6.1l1.2.2h.6c0,.1.6.3.6.3l.6.2.6.2.5.2.5.2.7.4.5.2.5.3.3.3v.4l-.2.4-.4.7-.3.4-1.3,1.8-.4.5-.4.4h-.3c0,.1-.2,0-.2,0l-.4-.2-.5-.3-.5-.2h-.2c0-.1-.5-.3-.5-.3h-.3c0,0-.6-.2-.6-.2l-.8-.2h-.6s-.9-.1-.9-.1h-1.5s-.6.1-.6.1l-.6.2h-.2c0,.1-.4.4-.4.4l-.2.2-.2.5v.6c0,0,0,.5,0,.5l.3.5.4.4.4.2h.2c0,.1.5.2.5.2h.9c0,.1,1.2.2,1.2.2h.6c0,.1,1.2.4,1.2.4l1.1.4.8.2h.5c0,.1,1,.5,1,.5l.7.3.5.2.5.3.5.3,1,.8.4.4.4.4.4.6.3.5.2.5v.5c.1,0,.3.8.3.8v.5c0,0,0,.6,0,.6Z"/>
        <path class="cls-1"
              d="M308.2,97.7v.6s-.2,1.9-.2,1.9v.4s-.2.2-.2.2h-.2c0,.1-4.6.3-4.6.3h-2.4c0-.1-.6-.1-.6-.1h-1.8c0,.1-.6.2-.6.2h-4.2c0-.1-.6-.1-.6-.1l-3,.2h-1.2c0,0-.4-.1-.4-.1l-.2-.2v-.2c-.1,0-.2-.4-.2-.4v-.8c0,0-.1-.6-.1-.6v-.5s0-.5,0-.5v-1.9c.1,0,.1-.6.1-.6v-1.9s0-.6,0-.6v-1.9c-.1,0-.1-.6-.1-.6v-1.9c0,0,0-3,0-3v-1.9c.1,0,.1-.6.1-.6v-1.9c-.1,0-.1-.6-.1-.6v-1.9c0,0,0-.5,0-.5v-1.8c.1,0,.1-.5.1-.5v-.3c.1,0,.3-.1.3-.1h.3s.5-.1.5-.1h2.3c0,.1,2.1.1,2.1.1h2.7c0,.1.6.1.6.1h2.1c0-.1.6-.1.6-.1h4.8c0,0,.6,0,.6,0h1.2c0-.1.9-.1.9-.1h.5c0,.1.2.3.2.3v.2c0,0,.1.5.1.5v1.8c0,0,0,.6,0,.6v.9s0,.5,0,.5v.5s-.1.4-.1.4v.2c-.1,0-.3.1-.3.1h-.4c0,0-.3,0-.3,0h-.6s-3.3,0-3.3,0h-2.4c0,0-.6,0-.6,0h-1.8c0,0-1.6-.2-1.6-.2h-.8s-.4.1-.4.1l-.2.2v.2s-.1.4-.1.4v.8c0,0,0,.6,0,.6v.6s0,.4,0,.4v.2c0,0,.2.2.2.2h.4c0,.1,1.1.2,1.1.2h1.1c0,0,3.3,0,3.3,0l3.9-.2h1.1c0,0,.4.1.4.1l.2.2v.2c.1,0,.1.4.1.4v.6c0,0,.1.6.1.6v2c0,0,0,1,0,1v.4c0,0-.2.2-.2.2l-.2.2h-.4c0,0-.7,0-.7,0l-1.6-.2h-.6s-2.8.1-2.8.1h-2.2c0,0-.6,0-.6,0h-1.4c0-.1-.6,0-.6,0h-.4s-.2.1-.2.1v.2c-.1,0-.1.5-.1.5v.9c-.1,0-.1.6-.1.6v1.1s.1.2.1.2h.1c0,.1.4.2.4.2h1.9c0,0,.6,0,.6,0h1.9c0-.1,2.5,0,2.5,0h3c0-.1.5-.1.5-.1h.5s1.3.2,1.3.2h.2c0,.1.1.3.1.3v.4s.1,1.9.1,1.9Z"/>
        <path class="cls-1"
              d="M335.7,100.8h-.5c0,.1-2.5.1-2.5.1h-1.9s-.6,0-.6,0h-1.6c0,0-.5,0-.5,0h-.3c0-.1-.3-.4-.3-.4l-1.1-1.6-.3-.4-1.1-1.5-.3-.4-1-1.6-.3-.4-1.1-1.5-.2-.3h-.2c0-.1-.4-.1-.4-.1h-1.1c0,0-.5,0-.5,0l-.3.2v.5c-.1,0-.2,1.9-.2,1.9v.6s.2,2,.2,2v.6s0,.8,0,.8v1.1s-.1.4-.1.4l-.2.2h-.4c0,.1-.6.1-.6.1h-1.7c0-.1-1.6,0-1.6,0h-2.2c0-.1-.4-.2-.4-.2h-.2c0-.1,0-.5,0-.5v-.5s0-.5,0-.5v-.9c0,0,.1-.6.1-.6v-1.9c.1,0,.1-.6.1-.6v-1.9c-.1,0-.1-.6-.1-.6v-1.9s0-.6,0-.6v-1.9c.1,0,.1-.6.1-.6v-1.9c-.1,0-.1-.6-.1-.6v-1.9c.1,0,.1-.6.1-.6v-1.9c0,0,0-.6,0-.6v-1.9s0-.6,0-.6v-1.2c0,0,0-.5,0-.5v-.2s.1-.5.1-.5l.2-.3h.4c0-.1.3-.1.3-.1h.5s1.6,0,1.6,0h4.2c0,.1,2.4,0,2.4,0h2.9c0,.1,1.3.1,1.3.1h.6s.5.1.5.1l.7.2.5.2.5.2.6.2.5.2.5.3.7.5.4.3.4.4.4.4.5.7.3.5.4.7.2.5.2.5.2.6v.6c.1,0,.1.6.1.6v.8c0,0,0,.6,0,.6v.6s-.1.6-.1.6v.6c-.1,0-.2.6-.2.6l-.2.5-.2.5-.3.5-.3.5-.3.4-.3.4-.6.6-.4.3-.7.4-.4.2-.5.2h-.5c0,.1-.3.2-.3.2v.3c.1,0,1.4,1.8,1.4,1.8l.3.4,1.3,1.7.4.4,1.3,1.8.4.4,1.1,1.3.3.4.2.4v.3ZM325.8,87.2l.5-.2.4-.2.4-.4.2-.5v-.6c.1,0,.2-.6.2-.6v-.6s-.1-.6-.1-.6v-.5c-.1,0-.4-.5-.4-.5l-.3-.4-.4-.3-.5-.2-.8-.2h-.6c0,0-1.8-.1-1.8-.1h-2.4c0,.1-.4.1-.4.1h-.2c0,.1-.2.3-.2.3v.4s0,.8,0,.8v.6c0,0,.1.6.1.6v.6s0,1.9,0,1.9v.4s.1.2.1.2h.2c0,.1.4.2.4.2h1.8c0,.1.6.1.6.1h2.3c0-.1.8-.3.8-.3Z"/>
        <path class="cls-1"
              d="M361.9,76.3v.5c-.1,0-.2.3-.2.3l-.2.6-.5,1-.2.5-.6,2-.2.5-.9,1.9-.2.5-.6,1.9-.2.6-.7,1.9-.2.6-.8,1.9-.2.5-1,1.9-.2.5-.8,1.9-.2.6-.8,1.8-.2.6-.8,1.9v.4c-.1,0-.4.1-.4.1h-.4s-2.6,0-2.6,0h-.6s-2,.2-2,.2h-.6s-.5,0-.5,0l-.2-.2-.2-.4-.8-1.9-.2-.5-.9-1.9-.2-.5-.8-1.9-.2-.6-.6-1.9-.2-.6-.8-1.9-.2-.5-.9-1.9-.2-.5-.7-1.9-.2-.6-.8-1.8-.2-.6-.6-2-.2-.5-.6-1-.2-.5v-.3c-.1,0-.2-.5-.2-.5v-.3c.1,0,.4-.2.4-.2h.4c0-.1.2-.1.2-.1h2.1c0,.1,1.7,0,1.7,0h2.2c0,.1.5.2.5.2h.3c0,0,.2.4.2.4v.4c.1,0,.3.5.3.5l.3,1.2.2.6.8,1.8.2.6.7,1.9.2.6.7,2.2.2.6.8,2.2.9,2.8.2.4h.2c0,.1.3,0,.3,0l.2-.4.8-2.2.2-.6.6-2.3.2-.6,1-2.1.2-.6.6-1.9.2-.5.9-1.9.2-.5.3-1.3.2-.6.3-.5h.2c0-.1.4-.2.4-.2h.8s.9,0,.9,0h3.9c0-.1.6,0,.6,0h.4c0,.1.2.3.2.3v.3Z"/>
        <path class="cls-1"
              d="M385.3,97.7v.6s-.2,1.9-.2,1.9v.4s-.2.2-.2.2h-.2c0,.1-4.6.3-4.6.3h-2.4c0-.1-.6-.1-.6-.1h-1.8c0,.1-.6.2-.6.2h-4.2c0-.1-.6-.1-.6-.1l-3,.2h-1.2c0,0-.4-.1-.4-.1l-.2-.2v-.2c0,0-.2-.4-.2-.4v-.8c0,0-.1-.6-.1-.6v-.5s0-.5,0-.5v-1.9c.1,0,.1-.6.1-.6v-1.9s0-.6,0-.6v-1.9c-.1,0-.1-.6-.1-.6v-1.9c0,0,0-3,0-3v-1.9c.1,0,.1-.6.1-.6v-1.9c-.1,0-.1-.6-.1-.6v-1.9c0,0,0-.5,0-.5v-1.8c0,0,.1-.5.1-.5v-.3c.1,0,.3-.1.3-.1h.3s.5-.1.5-.1h2.3c0,.1,2.1.1,2.1.1h2.7c0,.1.6.1.6.1h2.1c0-.1.6-.1.6-.1h4.8c0,0,.6,0,.6,0h1.2c0-.1.9-.1.9-.1h.5c0,.1.2.3.2.3v.2c0,0,.1.5.1.5v1.8c0,0,0,.6,0,.6v.9s0,.5,0,.5v.5s-.1.4-.1.4v.2c-.1,0-.3.1-.3.1h-.4c0,0-.3,0-.3,0h-.6s-3.3,0-3.3,0h-2.3c0,0-.6,0-.6,0h-1.8c0,0-1.6-.2-1.6-.2h-.8s-.3.1-.3.1l-.2.2v.2s-.1.4-.1.4v.8c0,0,0,.6,0,.6v.6s0,.4,0,.4v.2c0,0,.2.2.2.2h.4c0,.1,1.1.2,1.1.2h1.1c0,0,3.3,0,3.3,0l3.9-.2h1.1c0,0,.4.1.4.1l.2.2v.2c0,0,.1.4.1.4v.6c0,0,.1.6.1.6v2c0,0,0,1,0,1v.4c0,0-.2.2-.2.2l-.2.2h-.3c0,0-.7,0-.7,0l-1.6-.2h-.6s-2.8.1-2.8.1h-2.2c0,0-.6,0-.6,0h-1.4c0-.1-.6,0-.6,0h-.4s-.2.1-.2.1v.2c-.1,0-.1.5-.1.5v.9c0,0-.1.6-.1.6v1.1s.1.2.1.2h.1c0,.1.4.2.4.2h1.9c0,0,.6,0,.6,0h1.9c0-.1,2.5,0,2.5,0h3c0-.1.5-.1.5-.1h.5s1.3.2,1.3.2h.2c0,.1.1.3.1.3v.4s.1,1.9.1,1.9Z"/>
        <path class="cls-2"
              d="M396.3,98.6v.6c0,0-.3.6-.3.6l-.2.5-.3.5-.5.4-.5.3-.5.2h-.6c0,0-.6.1-.6.1h-.9s-.5,0-.5,0h-.2c0,0-.6-.2-.6-.2l-.6-.3-.5-.4v-.2c-.1,0-.5-.4-.5-.4v-.2c-.1,0-.3-.5-.3-.5v-.2c0,0-.2-.5-.2-.5v-1.4c.1,0,.2-.2.2-.2l.2-.4v-.2c0,0,.4-.4.4-.4v-.2c.1,0,.6-.4.6-.4l.6-.4.5-.2h.2c0-.1.5-.2.5-.2h1.5c0,.1.5.3.5.3l.5.3.5.3.5.4.4.4.2.5.2.6v.6c.1,0,.1.6.1.6Z"/>
        <path class="cls-1"
              d="M434,97.7v.6s-.2,1.9-.2,1.9v.4s-.2.2-.2.2h-.2c0,.1-4.6.3-4.6.3h-2.4c0-.1-.6-.1-.6-.1h-1.8c0,.1-.6.2-.6.2h-4.2c0-.1-.6-.1-.6-.1l-3,.2h-1.2c0,0-.4-.1-.4-.1l-.2-.2v-.2c-.1,0-.2-.4-.2-.4v-.8c0,0,0-.6,0-.6v-.5s0-.5,0-.5v-1.9c.1,0,.1-.6.1-.6v-1.9s0-.6,0-.6v-1.9c-.1,0-.1-.6-.1-.6v-1.9c0,0,0-3,0-3v-1.9c.1,0,.1-.6.1-.6v-1.9c-.1,0-.1-.6-.1-.6v-1.9c0,0,0-.5,0-.5v-1.8c.1,0,.1-.5.1-.5v-.3c0,0,.3-.1.3-.1h.3s.5-.1.5-.1h2.3c0,.1,2.1.1,2.1.1h2.7c0,.1.6.1.6.1h2.1c0-.1.6-.1.6-.1h4.8c0,0,.6,0,.6,0h1.2c0-.1.9-.1.9-.1h.5c0,.1.2.3.2.3v.2c0,0,.1.5.1.5v1.8c0,0,0,.6,0,.6v.9s0,.5,0,.5v.5s-.1.4-.1.4v.2c-.1,0-.3.1-.3.1h-.4c0,0-.3,0-.3,0h-.6s-3.3,0-3.3,0h-2.3c0,0-.6,0-.6,0h-1.8c0,0-1.6-.2-1.6-.2h-.8s-.3.1-.3.1l-.2.2v.2s-.1.4-.1.4v.8c0,0,0,.6,0,.6v.6s0,.4,0,.4v.2c0,0,.2.2.2.2h.4c0,.1,1.1.2,1.1.2h1.1c0,0,3.3,0,3.3,0l3.9-.2h1.1c0,0,.4.1.4.1l.2.2v.2c.1,0,.1.4.1.4v.6c0,0,.1.6.1.6v2c0,0,0,1,0,1v.4c0,0-.2.2-.2.2l-.2.2h-.3c0,0-.7,0-.7,0l-1.6-.2h-.6s-2.8.1-2.8.1h-2.2c0,0-.6,0-.6,0h-1.4c0-.1-.6,0-.6,0h-.4s-.2.1-.2.1v.2c0,0-.1.5-.1.5v.9c-.1,0-.1.6-.1.6v1.1s.1.2.1.2h.1c0,.1.4.2.4.2h1.9c0,0,.6,0,.6,0h1.9c0-.1,2.5,0,2.5,0h3c0-.1.5-.1.5-.1h.5s1.3.2,1.3.2h.2c0,.1.1.3.1.3v.4s.1,1.9.1,1.9Z"/>
        <path class="cls-1"
              d="M461.9,81.2v.6s0,5.2,0,5.2v2c0,0,0,.6,0,.6v4.6c0,0,0,.6,0,.6v.3s0,.6,0,.6v1.7c0,0,0,2,0,2v.5s-.2.4-.2.4l-.3.4-.3.2h-.3c0,.1-.5.1-.5.1h-1.8c0,0-.6.1-.6.1h-.9s-.6,0-.6,0h-.5c0-.1-.4-.3-.4-.3l-.4-.3-.3-.5-.5-1-.3-.5-1.4-1.7-.3-.4-1.4-1.7-.3-.5-1.2-1.8-.3-.4-1.4-1.7-.3-.4-1.3-1.7-.3-.3h-.2c0,.1,0,.5,0,.5v1.8c0,0,0,.6,0,.6v1.8s0,.6,0,.6v2s0,.6,0,.6v2c-.1,0,0,.6,0,.6l.2,1.4v.6s0,.5,0,.5l-.2.2h-.2c0,0-.4.1-.4.1h-.3s-.6,0-.6,0h-1.6s-.6,0-.6,0h-1.4c0,0-.6,0-.6,0h-.5s-.4-.1-.4-.1l-.3-.2v-.2c-.1,0-.2-.4-.2-.4v-.2s0-.5,0-.5v-1.2c0,0,.1-.6.1-.6v-1.9c0,0,0-.6,0-.6v-4.3c0,0,.1-.6.1-.6v-1.9c.1,0,.1-.6.1-.6v-4.3c-.1,0-.1-.6-.1-.6v-1.9c.1,0,.1-.6.1-.6v-1.9c-.1,0-.2-.6-.2-.6v-1.3s.1-.5.1-.5v-.4c0,0,.2-.2.2-.2h.2c0-.1.4-.2.4-.2h1c0,0,1,0,1,0h3s.2.2.2.2l.2.3,1.5,1.6.3.4,1.3,1.7.3.4,1.3,1.7.3.4,1.3,1.8.3.4,1.3,1.7.3.4,1.3,1.8.3.2h.3s.2-.1.2-.1v-.4l-.2-1.5v-.6s0-1.5,0-1.5v-2.7c-.1,0-.1-.6-.1-.6v-2.1c.1,0,.1-.6.1-.6v-1.3c0,0,0-.9,0-.9v-.5c0,0,.2-.3.2-.3h.2c0-.1.4-.2.4-.2h.9s1.6,0,1.6,0h1.8c0,0,.5,0,.5,0h.8s.4.1.4.1h.2c0,.1.2.4.2.4v.5c0,0,.1.3.1.3v.6s0,1.1,0,1.1v.6c0,0-.2,2-.2,2Z"/>
        <path class="cls-1"
              d="M488.8,87.5v.6s0,1.8,0,1.8v1.8c0,0-.2.9-.2.9v.5c0,0-.3.8-.3.8l-.2.5-.2.7-.2.5-.3.5-.3.5-.5.7-.3.5-.5.6-.4.4-.6.5-.4.3-.7.4-.5.3-.7.4-.5.2-.8.2h-.5c0,.1-.8.3-.8.3h-.5c0,.1-.9.2-.9.2h-1.2c0,0-.6,0-.6,0h-.8s-1.8-.3-1.8-.3l-1.3-.3-1.2-.4-1.3-.5-.7-.4-.5-.3-.6-.5-.4-.4-.5-.6-.3-.4-.4-.7-.2-.5-.3-.7-.2-.5-.3-1.1v-.9c-.1,0-.2-.6-.2-.6v-.8s0-.6,0-.6v-1.1c.1,0,.5-.1.5-.1h.5s1.6,0,1.6,0h1.6c0,0,.6,0,.6,0h1c0-.1.6-.1.6-.1l.4.2.2.4v.5s0,.2,0,.2v.5c0,0,.3.8.3.8l.2.5.2.5.3.5.7.6.5.3.5.2h.6c0,.1.8.2.8.2h.5s1-.2,1-.2l.5-.2.5-.2.5-.3.7-.6.4-.4.3-.5.2-.5.2-.8v-.5c0,0,.1-.8.1-.8v-2.6s0-.6,0-.6v-2.1s0-.6,0-.6v-2.1s0-.5,0-.5h-.3c0-.1-1.6,0-1.6,0h-2.1c0-.1-.6-.1-.6-.1h-1.1c0,.1-.5.1-.5.1l-.4-.2-.2-.4v-.7s0-1.5,0-1.5v-2.2c0,0,0-.5,0-.5l.2-.4h.4c0-.1.7-.1.7-.1h1.4c0,0,.6,0,.6,0l2.1-.2h.6s2.1,0,2.1,0h4.8c0,0,.5,0,.5,0h.3c0,.1.1.3.1.3v.4s0,.5,0,.5v.5s0,.8,0,.8v.6s-.1,1.8-.1,1.8v2.4c0,0,.1.6.1.6v1.8s0,.6,0,.6l-.2,1.8Z"/>
        <path class="cls-1"
              d="M520.5,88v.6s-.1.8-.1.8v.5c0,0-.3,1-.3,1v.8c0,0-.1.5-.1.5v.6c0,0-.2.5-.2.5l-.3.7-.2.5-1,1.6-.3.5-.3.5-.3.4-.6.6-.4.4-.5.4-.4.3-.6.4-.5.3-.5.3-.5.2-.7.3h-.5c0,.1-1.1.5-1.1.5l-.6.2h-.6c0,.1-.6.3-.6.3h-.6c0,.1-.6.1-.6.1h-3.1c0,0-1.2-.2-1.2-.2h-.5c0-.1-.5-.2-.5-.2l-1.9-.6-.6-.2-.6-.2-1.1-.5-.5-.3-.5-.3-.5-.4-.5-.4-.4-.5-.4-.5-1-1-.3-.4-.3-.5-.3-.5-.3-.7-.5-1.6-.2-.7v-.5c0,0-.2-.6-.2-.6v-.5c0,0-.2-.8-.2-.8v-.5s0-.6,0-.6v-1.2s0-.6,0-.6v-.6c0,0,.2-.6.2-.6v-.6c.1,0,.3-.6.3-.6l.2-.5.2-.6.2-.8.2-.6v-.3c.1,0,.4-.5.4-.5l.5-.8.3-.5.2-.3.4-.4.6-.5.5-.4.5-.3,1-.7.5-.3.5-.3.5-.2.7-.3.5-.2.5-.2h.5c0-.1,1.3-.4,1.3-.4h.5c0-.1,1.8-.3,1.8-.3h1.1c0,0,1,0,1,0h.8s.6.1.6.1h.6c0,.1.6.2.6.2h.6c0,.1.6.2.6.2h.5c0,.1.5.3.5.3l.7.3.5.2,1.2.7.5.3.5.4.6.6.4.4.4.4.3.4.5.7.3.5.2.5.3.5.4.7.3.5.2.5.2.5.2.8.2,1v.6c0,0,.2.6.2.6v1.2ZM511.9,92.6l.3-.5.3-.8.2-.5.2-.8v-.5c0,0,.1-.8.1-.8v-1.2s0-.6,0-.6l-.2-1v-.5c-.1,0-.5-.8-.5-.8l-.3-.5-.5-.6-.3-.4-.5-.6-.4-.3-.9-.5-.5-.2-.6-.2h-.6c0-.1-1.1-.2-1.1-.2h-.5s-.8,0-.8,0h-.5c0,.1-.9.4-.9.4l-.6.2-.8.4-.5.3-.6.5-.4.4-.4.5-.3.5v.2c0,0-.4.7-.4.7l-.2.5v.2c-.1,0-.2.5-.2.5v.5c0,0-.1.5-.1.5v.5s0,.5,0,.5v.6s.1.6.1.6v.3s.2.5.2.5v.2c0,0,.2.5.2.5v.3c.1,0,.4.5.4.5l.2.3.4.5.2.2.4.4.7.6.5.3.6.3.5.2.7.2h.5c0,.1.9.2.9.2h.6s.9,0,.9,0h.6c0,0,.8-.2.8-.2l.5-.2.8-.5.4-.3.6-.6.3-.4.4-.6Z"/>
        <path class="cls-1"
              d="M545.7,76.1l-.2.3-2.5,3.7-.3.5-1.2,1.6-.3.5-1,1.7-.3.5-1.1,1.6-.3.5-1.1,1.6-.3.5-1.2,1.6v.3c-.1,0-.1,2.8-.1,2.8v1.9c.1,0,.1.6.1.6v1.9c-.1,0-.1.6-.1.6v1.5c.1,0,.2.5.2.5v.3c0,0-.2.1-.2.1h-.3c0,0-2.3,0-2.3,0h-4.1c0-.1-.1-.2-.1-.2v-.4c0,0,0-4.3,0-4.3v-.6s-.2-1.9-.2-1.9v-.6s.1-1.9.1-1.9v-.3c0,0-.3-.2-.3-.2l-1-1.7-.3-.5-1.1-1.6-.3-.5-1-1.7-.3-.5-2.5-3.7-.3-.5-1-1.6-.3-.5-1-1.7v-.3c0,0,0-.2,0-.2h.2c0-.1,4.7-.1,4.7-.1h.6s2,.1,2,.1h.4s.1.1.1.1l1,1.8.3.5,1,1.6.3.5.9,1.6.3.5.9,1.5.2.3h.2c0,0,.2-.2.2-.2l.9-1.7.3-.5,1.1-1.5.3-.5.9-1.6.3-.5,1-1.6.3-.4h.3c0,0,.4,0,.4,0h1.8c0,.1.6.1.6.1h2c0-.1.6-.1.6-.1h2c0,.1.4.2.4.2h.2c0,0,0,.2,0,.2Z"/>
        <path class="cls-2"
              d="M548.4,98.6v.6c0,0-.3.6-.3.6l-.2.5-.3.5-.5.4-.5.3-.5.2h-.6c0,0-.6.1-.6.1h-.9s-.5,0-.5,0h-.2c0,0-.6-.2-.6-.2l-.6-.3-.5-.4v-.2c-.1,0-.5-.4-.5-.4v-.2c-.1,0-.3-.5-.3-.5v-.2c0,0-.2-.5-.2-.5v-1.4c.1,0,.2-.2.2-.2l.2-.4v-.2c0,0,.4-.4.4-.4v-.2c.1,0,.6-.4.6-.4l.6-.4.5-.2h.2c0-.1.5-.2.5-.2h1.5c0,.1.5.3.5.3l.5.3.5.3.5.4.4.4.2.5.2.6v.6c.1,0,.1.6.1.6Z"/>
      </g>
    </g>
  </g>
</svg>
