<?xml version="1.0" encoding="utf-8"?>
<!-- Generator: Adobe Illustrator 26.0.3, SVG Export Plug-In . SVG Version: 6.00 Build 0)  -->
<svg baseProfile="tiny" id="Layer_1" overflow="visible" version="1.1"
     viewBox="0 0 1000 497" x="0px" xml:space="preserve" xmlns="http://www.w3.org/2000/svg" y="0px">
<g>
	<path d="M238.05,239.98l-0.08,1.28l-0.16,1.84l-0.16,1.2l-0.48,2.4l-0.16,1.84l-0.16,1.2l-0.24,1.28l-0.32,1.2
		l-0.8,1.68l-0.56,1.12l-2.16,3.6l-0.72,1.04l-0.8,1.04l-0.8,0.88l-1.28,1.36l-0.88,0.8l-1.04,0.8l-0.96,0.72l-1.44,0.96l-1.04,0.64
		l-1.2,0.64l-1.12,0.48l-1.6,0.64l-1.2,0.32l-2.56,0.8l-1.36,0.4l-1.28,0.32l-1.36,0.32l-1.36,0.24l-1.36,0.08h-4.32l-2.72-0.16
		l-2.64-0.32l-1.12-0.24l-1.2-0.32l-4.32-1.44l-1.28-0.4l-1.36-0.56l-2.56-1.12l-1.2-0.64l-1.2-0.72l-1.04-0.8l-1.04-0.88
		l-0.96-1.04l-0.88-1.04l-2.16-2.16l-0.8-0.96l-0.8-1.04l-0.64-1.04l-0.64-1.6l-1.2-3.6l-0.48-1.68l-0.24-1.2l-0.24-1.28l-0.24-1.2
		l-0.24-1.76l-0.08-1.2l-0.08-1.36v-1.36l0.08-1.36l0.08-1.44l0.16-1.36l0.24-1.36l0.32-1.36l0.4-1.36l0.4-1.2l0.48-1.28l0.56-1.84
		l0.56-1.28l0.32-0.72l0.64-1.2l1.12-1.76l0.8-1.12l0.4-0.64l0.96-0.96l1.36-1.12l1.04-0.8l1.04-0.72l2.4-1.6l1.04-0.64l1.12-0.64
		l1.12-0.56l1.68-0.72l1.12-0.4l1.2-0.4l1.2-0.32l3.04-0.56l1.2-0.24l4-0.48l2.56-0.16l2.4,0.16l1.92,0.08l1.36,0.16l1.36,0.24
		l1.36,0.32l1.36,0.24l1.28,0.32l1.2,0.32l1.2,0.4l1.68,0.64l1.12,0.48l2.64,1.52l1.04,0.72l1.04,0.8l1.36,1.28l0.88,0.8l0.88,0.88
		l0.72,0.96l1.12,1.52l0.64,1.04l0.56,1.04l0.64,1.04l0.88,1.6l0.64,1.04l0.56,1.2l0.4,1.12l0.4,1.84l0.48,2.4l0.16,1.36l0.24,1.36
		L238.05,239.98z M218.52,250.38l0.72-1.12l0.8-1.76l0.48-1.2l0.4-1.84l0.16-1.2l0.16-1.92v-1.36l-0.08-1.36l-0.08-1.28l-0.48-2.4
		l-0.32-1.12l-0.88-1.76l-0.64-1.04l-1.12-1.44l-0.8-0.88l-1.2-1.28l-0.88-0.72l-2.08-1.2l-1.12-0.48l-1.28-0.4l-1.28-0.24
		l-2.56-0.16l-1.2,0.08l-1.76,0.08l-1.2,0.24l-2.08,0.56l-1.28,0.48l-1.84,0.96l-1.12,0.72l-1.28,1.12l-0.88,0.96l-0.88,1.2
		l-0.64,1.04l-0.24,0.48l-0.72,1.68l-0.4,1.2l-0.24,0.56l-0.24,1.12l-0.16,1.12l-0.08,1.12l-0.08,1.2v1.2l0.08,1.28l0.24,1.28
		l0.08,0.72l0.32,1.2l0.16,0.56l0.4,1.12l0.32,0.64l0.64,1.12l0.4,0.64l0.88,1.12l0.48,0.56l0.96,0.96l1.6,1.36l1.12,0.72l1.28,0.64
		l1.2,0.48l1.68,0.56l1.2,0.24l2,0.24l1.36,0.08l2-0.16l1.28-0.16l1.76-0.4l1.12-0.48l1.76-1.12l0.96-0.72l1.28-1.28l0.8-0.88
		L218.52,250.38z" fill="#FAAF40"/>
  <path d="M299.48,269.18l-1.04,0.32h-5.6l-4.4-0.08h-1.28l-3.6,0.16h-1.04l-0.72-0.32l-0.64-0.64l-2.56-3.6
		l-0.72-0.96l-2.56-3.44l-0.72-0.96l-2.24-3.68l-0.72-0.96l-2.56-3.44l-0.56-0.64l-0.48-0.24l-0.96-0.08l-2.56-0.16l-1.04,0.08
		l-0.64,0.48l-0.24,1.04l-0.16,4.4l0.08,1.28l0.32,4.48l0.08,1.28l0.08,1.92v1.28l-0.08,1.28l-0.16,0.96l-0.4,0.4l-0.88,0.24h-1.28
		l-3.84-0.24l-3.68,0.24h-1.28l-3.68-0.24l-0.96-0.16l-0.48-0.32l-0.16-0.8l-0.08-1.12l-0.08-1.2l0.16-2.08l0.08-1.28l0.32-4.32
		v-1.28l-0.24-4.32l-0.08-1.28l-0.08-4.24v-1.28l0.24-4.32v-1.28l-0.24-4.32v-1.28l0.24-4.32v-1.28l0.16-4.24v-1.28l-0.08-4.32
		v-1.28l-0.16-2.64l0.08-1.2l0.08-0.48l0.24-1.04l0.48-0.64l0.96-0.24l0.64-0.08l1.2-0.08l3.6,0.16l9.52,0.32l5.44-0.32h1.28
		l5.28,0.32h3.04l1.36,0.08l1.2,0.24l1.68,0.48l1.2,0.4l1.2,0.48l1.28,0.48l1.2,0.56l1.04,0.64l1.52,1.04l0.88,0.72l0.8,0.8
		l0.8,0.96l1.12,1.6l0.72,1.04l0.96,1.52l0.56,1.12l0.56,1.2l0.4,1.28l0.24,1.28l0.08,1.28l0.16,1.76v1.28l-0.08,1.28l-0.16,1.36
		l-0.24,1.36l-0.32,1.28l-0.48,1.2l-0.56,1.2l-0.72,1.2l-0.72,1.04l-0.72,0.96l-0.72,0.88l-1.28,1.28l-0.88,0.72l-1.6,0.88
		l-0.96,0.56l-1.04,0.56l-1.04,0.24l-0.64,0.24l0.32,0.64l2.88,4.08l0.72,0.96l2.88,3.92l0.8,0.96l2.88,4l0.8,0.96l2.48,2.88
		l0.72,0.88l0.4,0.88L299.48,269.18z M277,238.06l1.04-0.4l0.96-0.56l0.8-0.96l0.56-1.2l0.32-1.28l0.08-1.28l-0.08-1.36l-0.16-1.36
		l-0.32-1.2l-0.56-1.2l-0.72-0.96l-0.88-0.72l-1.12-0.48l-1.76-0.4l-1.28-0.16l-4-0.08h-1.28l-4.08,0.24l-0.96,0.08l-0.56,0.24
		l-0.48,0.48l-0.08,0.88l0.08,1.84l0.16,1.28l0.16,1.36l0.08,1.36l-0.16,4.4l0.08,0.88l0.16,0.48l0.56,0.24l0.96,0.16l4.16,0.32
		h1.28l5.28-0.32L277,238.06z" fill="#FAAF40"/>
  <path d="M361.96,242.14l-0.08,1.36l-0.08,1.92l-0.24,1.28l-0.56,1.84l-0.4,1.28l-0.48,1.2l-0.48,1.28l-0.48,1.36
		l-0.48,1.2l-0.88,1.76l-0.64,1.04l-1.12,1.28l-0.8,0.88l-1.36,1.28l-1.76,1.76l-1.04,0.88l-1.52,1.2l-1.04,0.64l-1.6,0.88
		l-1.04,0.48l-1.76,0.64l-1.2,0.4l-1.28,0.32l-1.28,0.24l-4.88,0.72l-1.2,0.08l-1.76,0.16h-1.28l-2.56-0.08l-2.08-0.16h-1.28
		l-2.56,0.16l-2,0.08l-1.36,0.08l-1.2-0.08h-5.6l-1.2-0.08l-3.44-0.32l-0.64-0.32l-0.4-0.4l-0.16-0.88l-0.08-1.28l0.08-0.64
		l0.16-2.4v-1.12l0.08-1.84v-1.2l0.08-1.28v-1.28l-0.08-4.24v-1.28l-0.16-4.24l0.08-1.2l0.08-1.76l0.16-1.2l0.08-1.36v-1.28
		l-0.16-2.08l-0.08-1.36v-0.72l-0.08-1.36l0.32-4.24v-1.28l-0.08-4.24v-1.28l-0.24-4.24v-3.12l0.08-1.28l0.24-1.2l0.16-0.88
		l0.32-0.48l0.88-0.24l1.36-0.16l1.2-0.16l1.28-0.08l7.04,0.08h1.28l3.84,0.24l0.64,0.08h1.44l3.36-0.16l1.2-0.08h1.28l2,0.16
		l2.56,0.16l1.28,0.16l2.08,0.32l1.28,0.24l1.2,0.32l2.88,1.04l1.2,0.56l1.2,0.64l1.12,0.64l2.64,1.84l1.04,0.88l0.96,0.8l1.76,1.68
		l0.8,0.8l0.72,0.88l0.56,1.04l0.88,1.76l0.48,1.2l0.4,1.28l0.48,1.28l0.4,1.28l0.32,1.28l0.32,1.76l0.24,1.28l0.24,1.36l0.16,1.28
		l0.08,1.92l0.08,1.28L361.96,242.14z M343.72,249.02l0.56-1.2l0.48-1.36l0.32-1.2l0.32-1.76l0.08-1.12l0.08-1.84v-2.56l-0.08-1.28
		l-0.24-1.84l-0.32-1.2l-0.16-0.48l-0.64-1.2l-1.2-1.68l-0.4-0.4l-0.8-0.88l-0.88-0.88l-0.96-0.72l-1.76-1.04L337,225.9l-1.12-0.24
		l-1.28-0.24l-2-0.08l-1.36-0.08h-2l-1.76-0.08l-1.2,0.08l-1.76,0.24l-0.88,0.24l-0.4,0.4L323,227.1l-0.08,0.72l-0.08,1.2l0.16,2.4
		l0.08,1.28l0.16,1.76l0.16,1.28l0.08,1.28v1.28l-0.08,1.76v3.84l-0.08,1.36l-0.08,1.28l-0.16,1.76v1.12l-0.08,1.84l0.08,1.2
		l0.24,1.92l0.32,0.88l0.48,0.4l0.96,0.08l7.44-0.48l1.84-0.08l1.28-0.24l1.36-0.4l1.28-0.48l1.2-0.56l1.04-0.72l1.44-1.28l0.8-0.96
		L343.72,249.02z" fill="#FAAF40"/>
  <path d="M416.36,261.98l-0.08,1.28l-0.32,4.32l-0.08,0.8l-0.32,0.56l-0.4,0.32l-10.48,0.32h-1.28l-4.24-0.32
		l-1.28,0.08l-4.16,0.32l-1.28,0.08h-5.52l-4.16-0.32h-1.28l-6.88,0.4l-2.72-0.16l-0.96-0.16l-0.56-0.4l-0.24-0.56l-0.16-0.88
		l-0.16-1.84l-0.08-1.28l0.08-1.2v-1.2l0.32-4.24v-1.28l0.08-4.24l-0.08-1.28l-0.24-4.24l-0.08-1.28l0.16-4.32v-6.8l0.32-4.24
		l-0.08-1.28l-0.24-4.24l-0.08-1.28v-1.92l0.16-2.4v-1.2l0.24-4.16l0.08-1.12l0.24-0.64l0.4-0.32l0.64-0.08l1.04-0.16l5.2,0.32
		l4.88-0.08h1.28l4.8,0.32h1.28l4.8-0.32h1.28l10.88,0.16l1.36-0.08l2.72-0.24h2l1.12,0.24l0.48,0.4l0.16,0.56l0.16,1.04v2.16
		l-0.16,2v1.36l0.08,2l0.08,1.2l-0.08,1.2l-0.16,0.96l-0.32,0.56l-0.4,0.32l-0.96,0.16h-0.64l-1.28,0.08l-7.52-0.16h-1.28
		l-4.08,0.16h-1.28l-4.16-0.16l-3.6-0.24h-1.2l-0.64,0.08l-0.8,0.16l-0.4,0.4l-0.08,0.48l-0.16,0.88l-0.16,1.92v1.28l0.08,1.36
		l0.08,0.88l0.16,0.56l0.32,0.4l0.88,0.24l2.56,0.16l2.56-0.16h7.6l8.96-0.48l2.48,0.16l0.88,0.16l0.48,0.4l0.24,0.48l0.08,0.88
		l0.16,1.36l0.08,1.36v2.64l0.16,1.84l-0.16,2.4l-0.16,0.96L413,246.7l-0.56,0.4l-0.8,0.16h-1.6l-3.6-0.4l-1.28-0.08l-6.4,0.4
		l-5.12-0.16h-1.28l-3.2-0.24l-1.36,0.08l-0.96,0.08l-0.4,0.24l-0.24,0.56l-0.08,1.2l-0.24,2l-0.08,1.28v1.76l0.08,0.8l0.24,0.56
		l0.32,0.32l0.88,0.08l4.4,0.16H393l4.32-0.32l5.68,0.32h1.28l5.68-0.32h1.2l1.2,0.08l2.88,0.32l0.48,0.24l0.32,0.48l0.08,0.88
		L416.36,261.98z" fill="#FAAF40"/>
  <path d="M479.16,269.18l-1.04,0.32h-5.6l-4.4-0.08h-1.28l-3.6,0.16h-1.04l-0.72-0.32l-0.64-0.64l-2.56-3.6
		l-0.72-0.96l-2.56-3.44l-0.72-0.96l-2.24-3.68l-0.72-0.96l-2.56-3.44l-0.56-0.64l-0.48-0.24l-0.96-0.08l-2.56-0.16l-1.04,0.08
		l-0.64,0.48l-0.24,1.04l-0.16,4.4l0.08,1.28l0.32,4.48l0.08,1.28l0.08,1.92v1.28l-0.08,1.28l-0.16,0.96l-0.4,0.4l-0.88,0.24h-1.28
		l-3.84-0.24l-3.68,0.24h-1.28l-3.68-0.24l-0.96-0.16l-0.48-0.32l-0.16-0.8l-0.08-1.12l-0.08-1.2l0.16-2.08l0.08-1.28l0.32-4.32
		v-1.28l-0.24-4.32l-0.08-1.28l-0.08-4.24v-1.28l0.24-4.32v-1.28l-0.24-4.32v-1.28l0.24-4.32v-1.28l0.16-4.24v-1.28l-0.08-4.32
		v-1.28l-0.16-2.64l0.08-1.2l0.08-0.48l0.24-1.04l0.48-0.64l0.96-0.24l0.64-0.08l1.2-0.08l3.6,0.16l9.52,0.32l5.44-0.32h1.28
		l5.28,0.32h3.04l1.36,0.08l1.2,0.24l1.68,0.48l1.2,0.4l1.2,0.48l1.28,0.48l1.2,0.56l1.04,0.64l1.52,1.04l0.88,0.72l0.8,0.8
		l0.8,0.96l1.12,1.6l0.72,1.04l0.96,1.52l0.56,1.12l0.56,1.2l0.4,1.28l0.24,1.28l0.08,1.28l0.16,1.76v1.28l-0.08,1.28l-0.16,1.36
		l-0.24,1.36l-0.32,1.28l-0.48,1.2l-0.56,1.2l-0.72,1.2l-0.72,1.04l-0.72,0.96l-0.72,0.88l-1.28,1.28l-0.88,0.72l-1.6,0.88
		l-0.96,0.56l-1.04,0.56l-1.04,0.24l-0.64,0.24l0.32,0.64l2.88,4.08l0.72,0.96l2.88,3.92l0.8,0.96l2.88,4l0.8,0.96l2.48,2.88
		l0.72,0.88l0.4,0.88L479.16,269.18z M456.68,238.06l1.04-0.4l0.96-0.56l0.8-0.96l0.56-1.2l0.32-1.28l0.08-1.28l-0.08-1.36
		l-0.16-1.36l-0.32-1.2l-0.56-1.2l-0.72-0.96l-0.88-0.72l-1.12-0.48l-1.76-0.4l-1.28-0.16l-4-0.08h-1.28l-4.08,0.24l-0.96,0.08
		l-0.56,0.24l-0.48,0.48l-0.08,0.88l0.08,1.84l0.16,1.28l0.16,1.36l0.08,1.36l-0.16,4.4l0.08,0.88l0.16,0.48l0.56,0.24l0.96,0.16
		l4.16,0.32h1.28l5.28-0.32L456.68,238.06z" fill="#FAAF40"/>
  <path d="M532.36,251.58l-0.08,1.36l-0.16,1.36l-0.24,1.28l-0.4,1.76l-0.4,1.12l-0.72,1.6l-0.56,1.04l-0.96,1.44
		l-0.8,0.96l-0.96,0.96l-0.96,0.88l-1.6,1.04l-1.04,0.72l-1.2,0.64l-1.12,0.56l-1.84,0.64l-2.4,0.8l-1.28,0.24l-2,0.32l-1.2,0.16
		l-1.76,0.16l-1.12,0.08l-1.84,0.08l-3.84,0.24h-1.76l-1.12-0.08l-1.84-0.16l-1.2-0.16l-1.36-0.24l-1.2-0.4l-1.76-0.56l-1.12-0.56
		l-1.2-0.56l-1.12-0.56l-1.04-0.64l-2.56-1.76l-0.96-0.8l-1.44-1.12l-0.96-0.8l-0.88-0.88l-0.64-0.72l-0.08-0.56l0.4-0.72l0.32-0.4
		l0.8-0.88l2.24-2.08l0.72-0.88l1.36-2.08l0.72-0.88l0.8-0.88l0.88-0.48l0.88,0.16l0.88,0.64l2.56,1.76l1.2,0.64l1.12,0.56
		l1.84,0.88l1.2,0.4l1.28,0.4l1.28,0.24l1.84,0.08l1.28,0.08l5.04-0.32l1.28-0.16l0.64-0.16l1.2-0.48l1.04-0.64l0.8-0.8l0.4-0.56
		l0.48-1.2l-0.08-1.36l-0.16-0.64l-0.64-1.12l-0.4-0.48l-1.04-0.8l-0.64-0.24l-1.2-0.48l-1.36-0.32l-1.36-0.24l-7.6-0.72l-2.4-0.48
		l-1.28-0.32l-1.76-0.64l-1.2-0.4l-1.2-0.56l-2.72-1.36l-1.04-0.72l-1.2-0.72l-1.04-0.72l-1.36-1.12l-0.72-1.04l-0.72-1.2l-0.48-1.2
		l-0.56-1.68l-0.24-1.2l-0.24-1.76l-0.16-2.56l0.08-1.28l0.16-1.92l0.24-1.2l0.32-1.04l0.4-1.2l0.8-1.76l0.56-1.12l0.64-0.96
		l0.8-0.88l1.28-1.2l1.04-0.8l1.04-0.72l1.12-0.56l1.52-0.88l2.4-0.96l1.2-0.4l1.84-0.32l1.28-0.24l2.4-0.32l1.76-0.32l1.28-0.16
		l1.2-0.08h1.28l2.4,0.24l1.2,0.16l0.56,0.16l1.28,0.16l2.72,0.48l1.36,0.32l1.28,0.4l1.36,0.4l1.28,0.48l1.2,0.56l1.2,0.48
		l1.52,0.88l1.12,0.56l1.04,0.72l0.72,0.72v0.8l-0.48,0.88l-0.88,1.6l-0.64,0.96l-3.04,4l-0.88,1.12l-0.96,0.8l-0.64,0.24
		l-0.56-0.08l-0.8-0.4l-1.2-0.72l-1.2-0.48l-0.56-0.24l-1.2-0.4l-0.64-0.16l-1.36-0.32l-1.84-0.4l-1.28-0.08l-2.08-0.16h-2.08
		l-1.36,0.08l-1.36,0.24l-1.28,0.4l-0.48,0.24l-0.96,0.72l-0.4,0.48l-0.56,1.12l-0.16,1.28l0.24,1.04l0.64,1.04l0.88,0.8l0.96,0.48
		l0.56,0.24l1.2,0.24l2,0.24l2.72,0.16l1.36,0.24l2.72,0.64l2.56,0.8l1.84,0.4l1.2,0.32l2.24,0.8l1.6,0.72l1.12,0.56l1.12,0.64
		l1.04,0.64l2.32,1.92l0.88,0.96l0.8,0.96l0.96,1.44l0.64,1.04l0.56,1.2l0.32,1.2l0.32,1.76l0.16,1.2L532.36,251.58z"
        fill="#231F20"/>
  <path d="M589.88,212.62l-0.48,0.72l-5.76,8.48l-0.8,1.04l-2.72,3.68l-0.72,1.04l-2.24,3.92l-0.72,1.12l-2.48,3.68
		l-0.8,1.12l-2.56,3.68l-0.8,1.04l-2.64,3.68l-0.32,0.64v6.48l0.32,4.32l-0.08,1.28l-0.32,4.32v1.28l0.32,3.36l0.08,1.12l-0.24,0.64
		l-0.32,0.32l-0.72,0.16h-5.28l-9.36-0.32l-0.32-0.24l-0.16-0.8v-9.84l-0.08-1.28l-0.32-4.32l-0.08-1.28l0.32-4.32l-0.16-0.72
		l-0.56-0.56l-2.16-3.84L547,241.1l-2.56-3.6l-0.72-1.12l-2.32-3.84l-0.64-1.12l-5.6-8.48l-0.64-1.12l-2.4-3.76l-0.64-1.12
		l-2.32-3.84l-0.24-0.72l0.08-0.4l0.48-0.32h10.72l1.28,0.08l4.64,0.24l0.88,0.08l0.32,0.24l2.32,4l0.64,1.04l2.4,3.6l0.64,1.04
		l2.08,3.68l0.72,1.12l2.16,3.44l0.56,0.72l0.48,0.16l0.56-0.56l2-3.84l0.72-1.04l2.48-3.52l0.72-1.04l2-3.76l0.64-1.12l2.24-3.68
		l0.64-0.8l0.64-0.16l0.88,0.08l4,0.24h1.28l4.64-0.24h1.28l4.56,0.32l0.96,0.16l0.4,0.16L589.88,212.62z"
        fill="#231F20"/>
  <path d="M639.64,251.58l-0.08,1.36l-0.16,1.36l-0.24,1.28l-0.4,1.76l-0.4,1.12l-0.72,1.6l-0.56,1.04l-0.96,1.44
		l-0.8,0.96l-0.96,0.96l-0.96,0.88l-1.6,1.04l-1.04,0.72l-1.2,0.64l-1.12,0.56l-1.84,0.64l-2.4,0.8l-1.28,0.24l-2,0.32l-1.2,0.16
		l-1.76,0.16l-1.12,0.08l-1.84,0.08l-3.84,0.24h-1.76l-1.12-0.08l-1.84-0.16l-1.2-0.16l-1.36-0.24l-1.2-0.4l-1.76-0.56l-1.12-0.56
		l-1.2-0.56l-1.12-0.56l-1.04-0.64l-2.56-1.76l-0.96-0.8l-1.44-1.12l-0.96-0.8l-0.88-0.88l-0.64-0.72l-0.08-0.56l0.4-0.72l0.32-0.4
		l0.8-0.88l2.24-2.08l0.72-0.88l1.36-2.08l0.72-0.88l0.8-0.88l0.88-0.48l0.88,0.16l0.88,0.64l2.56,1.76l1.2,0.64l1.12,0.56
		l1.84,0.88l1.2,0.4l1.28,0.4l1.28,0.24l1.84,0.08l1.28,0.08l5.04-0.32l1.28-0.16l0.64-0.16l1.2-0.48l1.04-0.64l0.8-0.8l0.4-0.56
		l0.48-1.2l-0.08-1.36l-0.16-0.64l-0.64-1.12l-0.4-0.48l-1.04-0.8l-0.64-0.24l-1.2-0.48l-1.36-0.32l-1.36-0.24l-7.6-0.72l-2.4-0.48
		l-1.28-0.32l-1.76-0.64l-1.2-0.4l-1.2-0.56l-2.72-1.36l-1.04-0.72l-1.2-0.72l-1.04-0.72l-1.36-1.12l-0.72-1.04l-0.72-1.2l-0.48-1.2
		l-0.56-1.68l-0.24-1.2l-0.24-1.76l-0.16-2.56l0.08-1.28l0.16-1.92l0.24-1.2l0.32-1.04l0.4-1.2l0.8-1.76l0.56-1.12l0.64-0.96
		l0.8-0.88l1.28-1.2l1.04-0.8l1.04-0.72l1.12-0.56l1.52-0.88l2.4-0.96l1.2-0.4l1.84-0.32l1.28-0.24l2.4-0.32l1.76-0.32l1.28-0.16
		l1.2-0.08h1.28l2.4,0.24l1.2,0.16l0.56,0.16l1.28,0.16l2.72,0.48l1.36,0.32l1.28,0.4l1.36,0.4l1.28,0.48l1.2,0.56l1.2,0.48
		l1.52,0.88l1.12,0.56l1.04,0.72l0.72,0.72v0.8L635,218.7l-0.88,1.6l-0.64,0.96l-3.04,4l-0.88,1.12l-0.96,0.8l-0.64,0.24l-0.56-0.08
		l-0.8-0.4l-1.2-0.72l-1.2-0.48l-0.56-0.24l-1.2-0.4l-0.64-0.16l-1.36-0.32l-1.84-0.4l-1.28-0.08l-2.08-0.16h-2.08l-1.36,0.08
		l-1.36,0.24l-1.28,0.4l-0.48,0.24l-0.96,0.72l-0.4,0.48l-0.56,1.12l-0.16,1.28l0.24,1.04l0.64,1.04l0.88,0.8l0.96,0.48l0.56,0.24
		l1.2,0.24l2,0.24l2.72,0.16l1.36,0.24l2.72,0.64l2.56,0.8l1.84,0.4l1.2,0.32l2.24,0.8l1.6,0.72l1.12,0.56l1.12,0.64l1.04,0.64
		l2.32,1.92l0.88,0.96l0.8,0.96l0.96,1.44l0.64,1.04l0.56,1.2l0.32,1.2l0.32,1.76l0.16,1.2L639.64,251.58z"
        fill="#231F20"/>
  <path d="M690.44,218.06l-0.08,1.2l0.08,2.4l-0.08,1.28l-0.08,0.64l-0.16,0.96l-0.24,0.56l-0.48,0.4l-0.96,0.16
		h-1.28l-2.4-0.24l-1.28-0.08l-3.68,0.24h-1.28l-2-0.16h-1.2l-0.56,0.08l-0.8,0.24l-0.32,0.48l-0.08,1.04l-0.32,4.72v1.28l0.32,4.8
		l-0.08,1.28l-0.32,4.8l-0.08,1.28l0.16,4.72v7.36l-0.16,4.72l0.08,1.2l0.4,3.6l0.08,1.28l-0.24,0.96l-0.4,0.4l-1.04,0.16
		l-1.52-0.08l-2-0.24l-1.36-0.08l-3.6,0.24h-1.28l-3.6-0.24l-0.96-0.08l-0.48-0.24l-0.16-0.88v-1.36l0.24-3.36l0.08-1.28v-6
		l0.08-4.8v-1.28l0.08-4.72v-1.28l-0.32-4.8l-0.08-1.28v-6.08l-0.16-4.72v-1.12l-0.24-0.64l-0.8-0.16h-1.2l-2.56,0.16h-1.44
		l-2.16-0.16l-1.36-0.08l-1.36,0.08l-1.84,0.08h-1.2l-0.64-0.08l-0.88-0.16l-0.48-0.32l-0.32-0.48l-0.16-0.8v-0.56l-0.08-1.28
		l0.16-2.4v-1.2l-0.24-3.04l0.08-1.28l0.24-1.04l0.32-0.56l0.48-0.24l0.8-0.16h1.84l2.96,0.24h1.28l4.64-0.32h1.28l4.72,0.4h1.28
		l5.92-0.4l4.64,0.08h1.28l6-0.08h5.92l2.64-0.16l1.36,0.08l0.64,0.08l0.96,0.16l0.56,0.32l0.4,0.56l0.16,0.96v0.56l0.08,1.2
		L690.44,218.06z" fill="#231F20"/>
  <path d="M745,261.98l-0.08,1.28l-0.32,4.32l-0.08,0.8l-0.32,0.56l-0.4,0.32l-10.48,0.32h-1.28l-4.24-0.32
		l-1.28,0.08l-4.16,0.32l-1.28,0.08h-5.52l-4.16-0.32h-1.28l-6.88,0.4l-2.72-0.16l-0.96-0.16l-0.56-0.4l-0.24-0.56l-0.16-0.88
		l-0.16-1.84l-0.08-1.28l0.08-1.2v-1.2l0.32-4.24v-1.28l0.08-4.24l-0.08-1.28l-0.24-4.24l-0.08-1.28l0.16-4.32v-6.8l0.32-4.24
		l-0.08-1.28l-0.24-4.24l-0.08-1.28v-1.92l0.16-2.4v-1.2l0.24-4.16l0.08-1.12l0.24-0.64l0.4-0.32l0.64-0.08l1.04-0.16l5.2,0.32
		l4.88-0.08h1.28l4.8,0.32h1.28l4.8-0.32h1.28l10.88,0.16l1.36-0.08l2.72-0.24h2l1.12,0.24l0.48,0.4l0.16,0.56l0.16,1.04v2.16
		l-0.16,2v1.36l0.08,2l0.08,1.2l-0.08,1.2l-0.16,0.96l-0.32,0.56l-0.4,0.32l-0.96,0.16h-0.64l-1.28,0.08l-7.52-0.16h-1.28
		l-4.08,0.16h-1.28l-4.16-0.16l-3.6-0.24h-1.2l-0.64,0.08l-0.8,0.16l-0.4,0.4l-0.08,0.48l-0.16,0.88l-0.16,1.92v1.28l0.08,1.36
		l0.08,0.88l0.16,0.56l0.32,0.4l0.88,0.24l2.56,0.16l2.56-0.16h7.6l8.96-0.48l2.48,0.16l0.88,0.16l0.48,0.4l0.24,0.48l0.08,0.88
		l0.16,1.36l0.08,1.36v2.64l0.16,1.84l-0.16,2.4l-0.16,0.96l-0.32,0.56l-0.56,0.4l-0.8,0.16h-1.6l-3.6-0.4l-1.28-0.08l-6.4,0.4
		l-5.12-0.16H721l-3.2-0.24l-1.36,0.08l-0.96,0.08l-0.4,0.24l-0.24,0.56l-0.08,1.2l-0.24,2l-0.08,1.28v1.76l0.08,0.8l0.24,0.56
		l0.32,0.32l0.88,0.08l4.4,0.16h1.28l4.32-0.32l5.68,0.32h1.28l5.68-0.32h1.2l1.2,0.08l2.88,0.32l0.48,0.24l0.32,0.48l0.08,0.88
		L745,261.98z" fill="#231F20"/>
  <path d="M818.68,262.22l0.08,1.28l0.32,2.48l0.08,1.2l-0.08,0.64L819,268.7l-0.4,0.64l-0.48,0.4l-0.88,0.16
		l-1.2,0.08h-1.28l-3.2-0.24l-1.36-0.08h-2l-1.44-0.08l-2.96-0.4l-0.56-0.16l-0.32-0.4l-0.08-0.8l-0.08-1.12l-0.08-1.2l0.16-2.72
		v-7.52l-0.24-5.04v-1.28l0.32-4.96v-6.24l-0.16-0.96l-0.48-0.32h-0.48l-0.56,0.72l-0.8,1.12l-3.36,3.84l-4.88,5.84l-3.2,4
		l-0.72,0.64l-0.56,0.24h-0.64l-0.88-0.16l-0.96-0.24l-0.88-0.64l-4-4.8l-2.96-3.92l-0.8-0.96l-4.16-4.64l-1.04-1.04l-0.48,0.16
		l-0.16,0.88l-0.24,5.04v1.28l0.32,5.04v1.28l0.16,5.04v1.28l-0.08,4.96v1.2l0.08,2.4l-0.08,1.28l-0.08,1.36l-0.16,1.04l-0.32,0.48
		l-0.56,0.16l-2.08,0.24l-1.28,0.08l-3.12-0.24l-1.28,0.08l-3.84,0.32h-1.84l-0.96-0.16l-0.48-0.48l-0.16-0.56l-0.16-0.8v-1.84
		l0.16-2.48v-12.32l-0.16-4.24v-1.28l0.08-4.24l-0.08-1.28l-0.24-4.32v-1.28l0.24-4.24l0.08-1.28l-0.32-4.24l0.08-1.28l0.32-4.24
		v-1.28l-0.32-2.96v-1.28l0.16-1.04l0.32-0.56l0.48-0.4l0.64-0.16l1.04-0.08l1.36,0.16l1.76,0.4h1.28l2.48-0.24l1.36-0.16l1.2-0.08
		l3.04,0.08h1.04l0.88,0.4l0.8,0.88l2.8,3.12l0.8,1.04l2.32,3.28l0.8,1.04l2.64,3.12l0.8,1.12l2.48,3.12l0.8,0.88l0.72,0.4h0.8
		l0.72-0.4l0.72-0.8l2.4-3.2l0.8-1.12l2.56-3.12l0.8-1.04l2.8-3.12l0.8-1.04l2.08-2.56l0.64-0.88l0.64-0.64l0.8-0.4l1.04,0.08
		l4.24,0.24l3.76,0.08h1.28l2.4-0.16l1.36,0.08l0.96,0.16l0.56,0.16l0.48,0.4l0.16,0.64l-0.08,0.96l-0.32,3.6l-0.08,1.28l0.16,4.24
		v1.28l-0.08,4.24v1.28l0.08,4.24v1.28l0.32,4.32v1.28l-0.32,4.24v1.28l0.24,4.24v1.28l-0.32,4.24v1.28L818.68,262.22z"
        fill="#231F20"/>
</g>
  <g>
	<path d="M303.08,297.69l-0.04,0.56l-0.07,0.81l-0.07,0.52l-0.21,1.05l-0.07,0.8l-0.07,0.53l-0.1,0.56l-0.14,0.53
		l-0.35,0.73l-0.25,0.49l-0.95,1.58l-0.31,0.46l-0.35,0.46l-0.35,0.38l-0.56,0.6l-0.38,0.35l-0.46,0.35l-0.42,0.31l-0.63,0.42
		l-0.46,0.28l-0.52,0.28l-0.49,0.21l-0.7,0.28l-0.53,0.14l-1.12,0.35l-0.59,0.17l-0.56,0.14l-0.6,0.14l-0.6,0.1l-0.59,0.04h-1.89
		l-1.19-0.07l-1.16-0.14l-0.49-0.11l-0.53-0.14l-1.89-0.63l-0.56-0.18l-0.59-0.24l-1.12-0.49l-0.53-0.28l-0.52-0.32l-0.46-0.35
		l-0.46-0.38l-0.42-0.46l-0.39-0.46l-0.94-0.95l-0.35-0.42l-0.35-0.46l-0.28-0.46l-0.28-0.7l-0.52-1.58l-0.21-0.74l-0.1-0.52
		l-0.1-0.56l-0.1-0.52l-0.1-0.77l-0.03-0.53l-0.04-0.59v-0.59l0.04-0.6l0.03-0.63l0.07-0.59l0.1-0.6l0.14-0.59l0.18-0.59l0.17-0.53
		l0.21-0.56l0.25-0.81l0.25-0.56l0.14-0.32l0.28-0.53l0.49-0.77l0.35-0.49l0.17-0.28l0.42-0.42l0.59-0.49l0.46-0.35l0.46-0.32
		l1.05-0.7l0.46-0.28l0.49-0.28l0.49-0.25l0.73-0.32l0.49-0.17l0.52-0.17l0.53-0.14l1.33-0.25l0.52-0.11l1.75-0.21l1.12-0.07
		l1.05,0.07l0.84,0.04l0.6,0.07l0.6,0.1l0.6,0.14l0.59,0.1l0.56,0.14l0.53,0.14l0.52,0.17l0.73,0.28l0.49,0.21l1.16,0.67l0.46,0.32
		l0.46,0.35l0.59,0.56l0.39,0.35l0.38,0.38l0.31,0.42l0.49,0.67l0.28,0.46l0.24,0.46l0.28,0.46l0.39,0.7l0.28,0.46l0.25,0.53
		l0.17,0.49l0.18,0.8l0.21,1.05l0.07,0.6l0.1,0.59L303.08,297.69z M295.73,298.29v-0.59l-0.03-0.6l-0.04-0.56l-0.21-1.05l-0.14-0.49
		l-0.39-0.77l-0.28-0.46l-0.49-0.63l-0.35-0.38l-0.52-0.56l-0.38-0.31l-0.91-0.53l-0.49-0.21l-0.56-0.17l-0.56-0.11l-1.12-0.07
		l-0.52,0.04l-0.77,0.04l-0.53,0.11l-0.91,0.25l-0.56,0.21l-0.8,0.42l-0.49,0.31l-0.56,0.49l-0.39,0.42l-0.38,0.53l-0.28,0.46
		l-0.1,0.21l-0.31,0.74l-0.17,0.52l-0.1,0.25l-0.1,0.49l-0.07,0.49l-0.04,0.49l-0.03,0.52v0.53l0.03,0.56l0.11,0.56l0.03,0.32
		l0.14,0.52l0.07,0.25l0.18,0.49l0.14,0.28l0.28,0.49l0.17,0.28l0.39,0.49l0.21,0.25l0.42,0.42l0.7,0.59l0.49,0.32l0.56,0.28
		l0.52,0.21l0.74,0.25l0.52,0.1l0.88,0.11l0.6,0.04l0.88-0.07l0.56-0.07l0.77-0.17l0.49-0.21l0.77-0.49l0.42-0.31l0.56-0.56
		l0.35-0.38l0.46-0.56l0.31-0.49l0.35-0.77l0.21-0.53l0.17-0.8l0.07-0.53L295.73,298.29z" fill="#231F20"/>
    <path d="M329.96,310.47l-0.46,0.14h-2.45l-1.92-0.04h-0.56l-1.58,0.07h-0.46l-0.31-0.14l-0.28-0.28l-1.12-1.58
		l-0.31-0.42l-1.12-1.51l-0.31-0.42l-0.98-1.61l-0.31-0.42l-1.12-1.5l-0.25-0.28l-0.21-0.1l-0.42-0.04l-1.12-0.07l-0.46,0.04
		l-0.28,0.21l-0.11,0.46l-0.07,1.92l0.04,0.56l0.14,1.96l0.03,0.56l0.04,0.84v0.56l-0.04,0.56l-0.07,0.42l-0.18,0.17l-0.38,0.11
		h-0.56l-1.68-0.11l-1.61,0.11h-0.56l-1.61-0.11l-0.42-0.07l-0.21-0.14l-0.07-0.35l-0.04-0.49l-0.03-0.53l0.07-0.91l0.04-0.56
		l0.14-1.89v-0.56l-0.1-1.89l-0.03-0.56l-0.04-1.86v-0.56l0.1-1.89v-0.56l-0.1-1.89v-0.56l0.1-1.89v-0.56l0.07-1.85v-0.56
		l-0.03-1.89v-0.56l-0.07-1.16l0.04-0.52l0.04-0.21l0.1-0.46l0.21-0.28l0.42-0.11l0.28-0.04l0.52-0.03l1.58,0.07l4.17,0.14
		l2.38-0.14h0.56l2.31,0.14h1.33l0.6,0.03l0.52,0.11l0.73,0.21l0.53,0.17l0.52,0.21l0.56,0.21l0.52,0.25l0.46,0.28l0.67,0.46
		l0.39,0.32l0.35,0.35l0.35,0.42l0.49,0.7l0.31,0.46l0.42,0.67l0.24,0.49l0.25,0.53l0.18,0.56l0.1,0.56l0.03,0.56l0.07,0.77v0.56
		l-0.04,0.56l-0.07,0.59l-0.1,0.59l-0.14,0.56l-0.21,0.52l-0.25,0.53l-0.31,0.53l-0.31,0.46l-0.32,0.42l-0.31,0.38l-0.56,0.56
		l-0.38,0.31l-0.7,0.39l-0.42,0.24l-0.46,0.25l-0.46,0.11l-0.28,0.1l0.14,0.28l1.26,1.79l0.31,0.42l1.26,1.72l0.35,0.42l1.26,1.75
		l0.35,0.42l1.09,1.26l0.31,0.39l0.17,0.38L329.96,310.47z M320.12,296.85l0.46-0.17l0.42-0.25l0.35-0.42l0.25-0.52l0.14-0.56
		l0.04-0.56l-0.04-0.59l-0.07-0.59l-0.14-0.53l-0.25-0.53l-0.31-0.42l-0.39-0.31l-0.49-0.21l-0.77-0.17l-0.56-0.07l-1.75-0.04h-0.56
		l-1.79,0.11l-0.42,0.03l-0.25,0.11l-0.21,0.21l-0.04,0.38l0.04,0.81l0.07,0.56l0.07,0.59l0.03,0.6l-0.07,1.92l0.04,0.38l0.07,0.21
		l0.25,0.1l0.42,0.07l1.82,0.14h0.56l2.31-0.14L320.12,296.85z" fill="#231F20"/>
    <path d="M357.3,298.64l-0.04,0.6l-0.04,0.84l-0.1,0.56l-0.25,0.8L356.7,302l-0.21,0.53l-0.21,0.56l-0.21,0.59
		l-0.21,0.53l-0.38,0.77l-0.28,0.46l-0.49,0.56l-0.35,0.38l-0.6,0.56l-0.77,0.77l-0.46,0.38l-0.67,0.53l-0.46,0.28l-0.7,0.38
		l-0.46,0.21l-0.77,0.28l-0.52,0.17l-0.56,0.14l-0.56,0.11l-2.14,0.31l-0.52,0.04l-0.77,0.07h-0.56l-1.12-0.04l-0.91-0.07h-0.56
		l-1.12,0.07l-0.88,0.04l-0.59,0.04l-0.53-0.04h-2.45l-0.52-0.04l-1.51-0.14l-0.28-0.14l-0.17-0.17l-0.07-0.38l-0.03-0.56l0.03-0.28
		l0.07-1.05v-0.49l0.03-0.81v-0.53l0.04-0.56v-0.56l-0.04-1.85v-0.56l-0.07-1.85l0.04-0.53l0.03-0.77l0.07-0.52l0.03-0.6v-0.56
		l-0.07-0.91l-0.04-0.59v-0.32l-0.03-0.59l0.14-1.86v-0.56l-0.03-1.85v-0.56l-0.1-1.86v-1.36l0.03-0.56l0.1-0.53l0.07-0.38
		l0.14-0.21l0.39-0.11l0.6-0.07l0.52-0.07l0.56-0.04l3.08,0.04h0.56l1.68,0.11l0.28,0.03h0.63l1.47-0.07l0.53-0.04h0.56l0.88,0.07
		l1.12,0.07l0.56,0.07l0.91,0.14l0.56,0.11l0.52,0.14l1.26,0.46l0.52,0.25l0.52,0.28l0.49,0.28l1.16,0.8l0.46,0.38l0.42,0.35
		l0.77,0.74l0.35,0.35l0.31,0.38l0.25,0.46l0.38,0.77l0.21,0.52l0.18,0.56l0.21,0.56l0.18,0.56l0.14,0.56l0.14,0.77l0.1,0.56
		l0.1,0.59l0.07,0.56l0.04,0.84l0.04,0.56L357.3,298.64z M349.31,301.65l0.25-0.53l0.21-0.59l0.14-0.53l0.14-0.77l0.04-0.49
		l0.04-0.8v-1.12l-0.04-0.56l-0.1-0.8l-0.14-0.53l-0.07-0.21l-0.28-0.53l-0.52-0.73l-0.17-0.18l-0.35-0.38l-0.39-0.38l-0.42-0.32
		l-0.77-0.46l-0.49-0.21l-0.49-0.1l-0.56-0.11l-0.88-0.04l-0.59-0.04h-0.88l-0.77-0.03l-0.52,0.03l-0.77,0.11l-0.39,0.1l-0.17,0.18
		l-0.1,0.42l-0.04,0.31l-0.04,0.53l0.07,1.05l0.03,0.56l0.07,0.77l0.07,0.56l0.04,0.56v0.56l-0.04,0.77v1.68l-0.04,0.59l-0.03,0.56
		l-0.07,0.77v0.49l-0.03,0.81l0.03,0.52l0.1,0.84l0.14,0.38l0.21,0.17l0.42,0.04l3.26-0.21l0.8-0.04l0.56-0.11l0.6-0.17l0.56-0.21
		l0.52-0.25l0.46-0.31l0.63-0.56l0.35-0.42L349.31,301.65z" fill="#231F20"/>
    <path d="M381.09,307.32l-0.03,0.56l-0.14,1.89l-0.04,0.35l-0.14,0.25l-0.17,0.14l-4.59,0.14h-0.56l-1.85-0.14
		l-0.56,0.04l-1.82,0.14l-0.56,0.04h-2.42l-1.82-0.14h-0.56l-3.01,0.17l-1.19-0.07l-0.42-0.07l-0.25-0.17l-0.1-0.25l-0.07-0.38
		l-0.07-0.81l-0.04-0.56l0.04-0.53v-0.53l0.14-1.85v-0.56l0.04-1.86l-0.04-0.56l-0.1-1.86l-0.04-0.56l0.07-1.89v-2.98l0.14-1.85
		l-0.03-0.56l-0.1-1.85l-0.04-0.56v-0.84l0.07-1.05v-0.52l0.1-1.82l0.04-0.49l0.1-0.28l0.18-0.14l0.28-0.04l0.46-0.07l2.28,0.14
		l2.14-0.04h0.56l2.1,0.14h0.56l2.1-0.14h0.56l4.76,0.07l0.59-0.04l1.19-0.11h0.88l0.49,0.11l0.21,0.17l0.07,0.25l0.07,0.46v0.95
		l-0.07,0.88v0.59l0.04,0.88l0.03,0.53l-0.03,0.53l-0.07,0.42l-0.14,0.25l-0.18,0.14l-0.42,0.07h-0.28l-0.56,0.03l-3.29-0.07H375
		l-1.79,0.07h-0.56l-1.82-0.07l-1.58-0.11h-0.52l-0.28,0.04l-0.35,0.07l-0.17,0.17l-0.04,0.21l-0.07,0.38l-0.07,0.84v0.56l0.04,0.59
		l0.04,0.39l0.07,0.25l0.14,0.17l0.38,0.1l1.12,0.07l1.12-0.07h3.33l3.92-0.21l1.08,0.07l0.39,0.07l0.21,0.17l0.1,0.21l0.03,0.38
		l0.07,0.6l0.04,0.59v1.16l0.07,0.8l-0.07,1.05l-0.07,0.42l-0.14,0.25l-0.24,0.17l-0.35,0.07h-0.7l-1.58-0.17l-0.56-0.04l-2.8,0.18
		l-2.24-0.07h-0.56l-1.4-0.11l-0.6,0.04l-0.42,0.04l-0.18,0.11l-0.1,0.24l-0.04,0.53l-0.1,0.88l-0.03,0.56v0.77l0.03,0.35l0.1,0.25
		l0.14,0.14l0.39,0.04l1.93,0.07h0.56l1.89-0.14l2.48,0.14h0.56l2.48-0.14h0.53l0.52,0.04l1.26,0.14l0.21,0.11l0.14,0.21l0.03,0.38
		L381.09,307.32z" fill="#231F20"/>
    <path d="M408.57,310.47l-0.45,0.14h-2.45l-1.92-0.04h-0.56l-1.58,0.07h-0.46l-0.32-0.14l-0.28-0.28l-1.12-1.58
		l-0.31-0.42l-1.12-1.51l-0.31-0.42l-0.98-1.61l-0.31-0.42l-1.12-1.5l-0.25-0.28l-0.21-0.1l-0.42-0.04l-1.12-0.07l-0.46,0.04
		l-0.28,0.21l-0.1,0.46l-0.07,1.92l0.04,0.56l0.14,1.96l0.03,0.56l0.04,0.84v0.56l-0.04,0.56l-0.07,0.42l-0.18,0.17l-0.38,0.11
		h-0.56l-1.68-0.11l-1.61,0.11h-0.56l-1.61-0.11l-0.42-0.07l-0.21-0.14l-0.07-0.35l-0.04-0.49l-0.04-0.53l0.07-0.91l0.04-0.56
		l0.14-1.89v-0.56l-0.1-1.89l-0.03-0.56l-0.04-1.86v-0.56l0.1-1.89v-0.56l-0.1-1.89v-0.56l0.1-1.89v-0.56l0.07-1.85v-0.56
		l-0.03-1.89v-0.56l-0.07-1.16l0.04-0.52l0.04-0.21l0.1-0.46l0.21-0.28l0.42-0.11l0.28-0.04l0.52-0.03l1.58,0.07l4.17,0.14
		l2.38-0.14h0.56l2.31,0.14h1.33l0.6,0.03l0.52,0.11l0.73,0.21l0.53,0.17l0.52,0.21l0.56,0.21l0.52,0.25l0.46,0.28l0.67,0.46
		l0.39,0.32l0.35,0.35l0.35,0.42l0.49,0.7l0.31,0.46l0.42,0.67l0.24,0.49l0.25,0.53l0.18,0.56l0.1,0.56l0.03,0.56l0.07,0.77v0.56
		l-0.04,0.56l-0.07,0.59l-0.1,0.59l-0.14,0.56l-0.21,0.52l-0.25,0.53l-0.31,0.53l-0.31,0.46l-0.32,0.42l-0.31,0.38l-0.56,0.56
		l-0.38,0.31l-0.7,0.39l-0.42,0.24l-0.46,0.25l-0.46,0.11l-0.28,0.1l0.14,0.28l1.26,1.79l0.31,0.42l1.26,1.72l0.35,0.42l1.26,1.75
		l0.35,0.42l1.09,1.26l0.31,0.39l0.17,0.38L408.57,310.47z M398.73,296.85l0.46-0.17l0.42-0.25l0.35-0.42l0.25-0.52l0.14-0.56
		l0.04-0.56l-0.04-0.59l-0.07-0.59l-0.14-0.53l-0.25-0.53l-0.31-0.42l-0.39-0.31l-0.49-0.21l-0.77-0.17l-0.56-0.07l-1.75-0.04h-0.56
		l-1.79,0.11l-0.42,0.03l-0.25,0.11l-0.21,0.21l-0.04,0.38l0.04,0.81l0.07,0.56l0.07,0.59l0.03,0.6l-0.07,1.92l0.04,0.38l0.07,0.21
		l0.25,0.1l0.42,0.07l1.82,0.14h0.56l2.31-0.14L398.73,296.85z" fill="#231F20"/>
    <path d="M417.32,308.23l-0.1,0.56l-0.17,0.56l-0.25,0.52l-0.32,0.49l-0.45,0.42l-0.49,0.28l-0.52,0.17l-0.56,0.07
		l-0.63,0.04h-0.63l-0.25-0.04l-0.52-0.04l-0.25-0.07l-0.56-0.17l-0.56-0.31l-0.46-0.35l-0.14-0.21l-0.31-0.38l-0.1-0.21l-0.21-0.46
		l-0.07-0.21l-0.1-0.49v-0.95l0.14-0.46l0.07-0.25l0.24-0.42l0.1-0.21l0.32-0.38l0.14-0.18l0.46-0.38l0.56-0.38l0.53-0.25l0.21-0.1
		l0.52-0.11h0.84l0.63,0.11l0.52,0.21l0.49,0.28l0.46,0.32l0.46,0.35l0.38,0.42l0.25,0.49l0.21,0.56l0.1,0.56L417.32,308.23z"
          fill="#FAAF40"/>
    <path d="M456.13,302.77l-0.03,0.59l-0.07,0.6l-0.1,0.56l-0.17,0.77l-0.18,0.49l-0.31,0.7l-0.25,0.46l-0.42,0.63
		l-0.35,0.42l-0.42,0.42l-0.42,0.38l-0.7,0.46l-0.46,0.32l-0.52,0.28l-0.49,0.25l-0.81,0.28l-1.05,0.35l-0.56,0.1l-0.88,0.14
		l-0.52,0.07l-0.77,0.07l-0.49,0.04l-0.8,0.04l-1.68,0.1h-0.77l-0.49-0.04l-0.81-0.07l-0.52-0.07l-0.6-0.11l-0.52-0.17l-0.77-0.25
		l-0.49-0.25l-0.52-0.25l-0.49-0.25l-0.46-0.28l-1.12-0.77l-0.42-0.35l-0.63-0.49l-0.42-0.35l-0.38-0.38l-0.28-0.31l-0.04-0.25
		l0.18-0.32l0.14-0.17l0.35-0.38l0.98-0.91l0.31-0.39l0.6-0.91l0.31-0.38l0.35-0.38l0.38-0.21l0.39,0.07l0.38,0.28l1.12,0.77
		l0.53,0.28l0.49,0.24l0.81,0.39l0.52,0.17l0.56,0.17l0.56,0.11l0.81,0.04l0.56,0.03l2.21-0.14l0.56-0.07l0.28-0.07l0.52-0.21
		l0.46-0.28l0.35-0.35l0.18-0.25l0.21-0.52l-0.04-0.6l-0.07-0.28l-0.28-0.49l-0.17-0.21l-0.46-0.35l-0.28-0.1l-0.52-0.21l-0.6-0.14
		l-0.59-0.1l-3.33-0.32l-1.05-0.21l-0.56-0.14l-0.77-0.28l-0.53-0.17l-0.52-0.25l-1.19-0.59l-0.46-0.32l-0.53-0.32l-0.46-0.31
		l-0.59-0.49l-0.32-0.46l-0.31-0.53l-0.21-0.52l-0.25-0.74l-0.1-0.53l-0.1-0.77l-0.07-1.12l0.04-0.56l0.07-0.84l0.1-0.53l0.14-0.46
		l0.17-0.52l0.35-0.77l0.25-0.49l0.28-0.42l0.35-0.38l0.56-0.53l0.46-0.35l0.46-0.32l0.49-0.25l0.67-0.38l1.05-0.42l0.53-0.17
		l0.81-0.14l0.56-0.1l1.05-0.14l0.77-0.14l0.56-0.07l0.53-0.03h0.56l1.05,0.1l0.53,0.07l0.24,0.07l0.56,0.07l1.19,0.21l0.59,0.14
		l0.56,0.17l0.6,0.17l0.56,0.21l0.52,0.25l0.53,0.21l0.67,0.38l0.49,0.25l0.46,0.32l0.32,0.31V288l-0.21,0.38l-0.38,0.7l-0.28,0.42
		l-1.33,1.75l-0.38,0.49l-0.42,0.35l-0.28,0.1l-0.25-0.04l-0.35-0.17l-0.52-0.31l-0.52-0.21l-0.25-0.1l-0.52-0.17l-0.28-0.07
		l-0.6-0.14l-0.81-0.18l-0.56-0.03l-0.91-0.07h-0.91l-0.6,0.04l-0.6,0.1l-0.56,0.18l-0.21,0.1l-0.42,0.32l-0.17,0.21l-0.25,0.49
		l-0.07,0.56l0.1,0.46l0.28,0.46l0.38,0.35l0.42,0.21l0.25,0.11l0.52,0.1l0.88,0.11l1.19,0.07l0.6,0.1l1.19,0.28l1.12,0.35l0.8,0.18
		l0.53,0.14l0.98,0.35l0.7,0.32l0.49,0.25l0.49,0.28l0.46,0.28l1.02,0.84l0.38,0.42l0.35,0.42l0.42,0.63l0.28,0.46l0.25,0.53
		l0.14,0.52l0.14,0.77l0.07,0.53L456.13,302.77z" fill="#231F20"/>
    <path d="M480.25,307.32l-0.03,0.56l-0.14,1.89l-0.04,0.35l-0.14,0.25l-0.17,0.14l-4.59,0.14h-0.56l-1.86-0.14
		l-0.56,0.04l-1.82,0.14l-0.56,0.04h-2.42l-1.82-0.14h-0.56l-3.01,0.17l-1.19-0.07l-0.42-0.07l-0.25-0.17l-0.1-0.25l-0.07-0.38
		l-0.07-0.81l-0.03-0.56l0.03-0.53v-0.53l0.14-1.85v-0.56l0.04-1.86l-0.04-0.56l-0.1-1.86l-0.04-0.56l0.07-1.89v-2.98l0.14-1.85
		l-0.03-0.56l-0.1-1.85l-0.04-0.56v-0.84l0.07-1.05v-0.52l0.1-1.82l0.04-0.49l0.1-0.28l0.17-0.14l0.28-0.04l0.46-0.07l2.28,0.14
		l2.14-0.04h0.56l2.1,0.14h0.56l2.1-0.14h0.56l4.76,0.07l0.59-0.04l1.19-0.11h0.88l0.49,0.11l0.21,0.17l0.07,0.25l0.07,0.46v0.95
		l-0.07,0.88v0.59l0.04,0.88l0.03,0.53l-0.03,0.53l-0.07,0.42l-0.14,0.25l-0.17,0.14l-0.42,0.07h-0.28l-0.56,0.03l-3.29-0.07h-0.56
		l-1.79,0.07h-0.56l-1.82-0.07l-1.58-0.11h-0.52l-0.28,0.04l-0.35,0.07l-0.17,0.17l-0.04,0.21l-0.07,0.38l-0.07,0.84v0.56l0.04,0.59
		l0.04,0.39l0.07,0.25l0.14,0.17l0.38,0.1l1.12,0.07l1.12-0.07h3.33l3.92-0.21l1.08,0.07l0.39,0.07l0.21,0.17l0.1,0.21l0.04,0.38
		l0.07,0.6l0.04,0.59v1.16l0.07,0.8l-0.07,1.05l-0.07,0.42l-0.14,0.25l-0.24,0.17l-0.35,0.07h-0.7l-1.58-0.17l-0.56-0.04l-2.8,0.18
		l-2.24-0.07h-0.56l-1.4-0.11l-0.6,0.04l-0.42,0.04l-0.18,0.11l-0.1,0.24l-0.04,0.53l-0.1,0.88l-0.03,0.56v0.77l0.03,0.35l0.1,0.25
		l0.14,0.14l0.39,0.04l1.93,0.07h0.56l1.89-0.14l2.49,0.14h0.56l2.49-0.14h0.53l0.52,0.04l1.26,0.14l0.21,0.11l0.14,0.21l0.03,0.38
		L480.25,307.32z" fill="#231F20"/>
    <path d="M507.72,310.47l-0.46,0.14h-2.45l-1.92-0.04h-0.56l-1.58,0.07h-0.46l-0.31-0.14l-0.28-0.28l-1.12-1.58
		l-0.31-0.42l-1.12-1.51l-0.31-0.42l-0.98-1.61l-0.31-0.42l-1.12-1.5l-0.25-0.28l-0.21-0.1l-0.42-0.04l-1.12-0.07l-0.46,0.04
		l-0.28,0.21l-0.11,0.46l-0.07,1.92l0.04,0.56l0.14,1.96l0.03,0.56l0.04,0.84v0.56l-0.04,0.56l-0.07,0.42l-0.18,0.17l-0.38,0.11
		h-0.56l-1.68-0.11l-1.61,0.11h-0.56l-1.61-0.11l-0.42-0.07l-0.21-0.14l-0.07-0.35l-0.04-0.49l-0.03-0.53l0.07-0.91l0.04-0.56
		l0.14-1.89v-0.56l-0.1-1.89l-0.03-0.56l-0.04-1.86v-0.56l0.1-1.89v-0.56l-0.1-1.89v-0.56l0.1-1.89v-0.56l0.07-1.85v-0.56
		l-0.03-1.89v-0.56l-0.07-1.16l0.04-0.52l0.04-0.21l0.1-0.46l0.21-0.28l0.42-0.11l0.28-0.04l0.52-0.03l1.58,0.07l4.17,0.14
		l2.38-0.14h0.56l2.31,0.14h1.33l0.6,0.03l0.52,0.11l0.73,0.21l0.53,0.17l0.52,0.21l0.56,0.21l0.52,0.25l0.46,0.28l0.67,0.46
		l0.39,0.32l0.35,0.35l0.35,0.42l0.49,0.7l0.32,0.46l0.42,0.67l0.25,0.49l0.25,0.53l0.17,0.56l0.11,0.56l0.03,0.56l0.07,0.77v0.56
		l-0.04,0.56l-0.07,0.59l-0.11,0.59l-0.14,0.56l-0.21,0.52l-0.25,0.53l-0.32,0.53l-0.31,0.46l-0.32,0.42l-0.32,0.38l-0.56,0.56
		l-0.38,0.31l-0.7,0.39l-0.42,0.24l-0.46,0.25l-0.46,0.11l-0.28,0.1l0.14,0.28l1.26,1.79l0.31,0.42l1.26,1.72l0.35,0.42l1.26,1.75
		l0.35,0.42l1.08,1.26l0.32,0.39l0.17,0.38L507.72,310.47z M497.89,296.85l0.46-0.17l0.42-0.25l0.35-0.42l0.25-0.52l0.14-0.56
		l0.04-0.56l-0.04-0.59l-0.07-0.59l-0.14-0.53l-0.25-0.53l-0.31-0.42l-0.39-0.31l-0.49-0.21l-0.77-0.17l-0.56-0.07l-1.75-0.04h-0.56
		l-1.79,0.11l-0.42,0.03l-0.25,0.11l-0.21,0.21l-0.04,0.38l0.04,0.81l0.07,0.56l0.07,0.59l0.03,0.6l-0.07,1.92l0.04,0.38l0.07,0.21
		l0.25,0.1l0.42,0.07l1.82,0.14h0.56l2.31-0.14L497.89,296.85z" fill="#231F20"/>
    <path d="M533.97,285.93l-0.11,0.46l-0.1,0.32l-0.21,0.56l-0.49,0.95l-0.25,0.53l-0.63,1.96l-0.25,0.53l-0.91,1.85
		l-0.25,0.53l-0.63,1.92l-0.21,0.56l-0.74,1.89l-0.21,0.56l-0.77,1.89l-0.24,0.53l-0.95,1.86l-0.25,0.52l-0.77,1.89l-0.21,0.56
		l-0.84,1.82l-0.21,0.56l-0.8,1.89l-0.14,0.39l-0.21,0.14l-0.42,0.04l-2.56-0.04l-0.56,0.04l-1.96,0.17l-0.6,0.04l-0.46-0.07
		l-0.25-0.25l-0.21-0.42l-0.77-1.85l-0.21-0.53l-0.91-1.92l-0.21-0.53l-0.77-1.86l-0.21-0.56l-0.63-1.93l-0.21-0.56l-0.84-1.86
		l-0.21-0.53l-0.91-1.92l-0.21-0.53l-0.7-1.89l-0.25-0.56l-0.84-1.82l-0.21-0.56l-0.63-1.96l-0.21-0.53l-0.63-1.01l-0.21-0.53
		l-0.11-0.32l-0.07-0.46l0.1-0.31l0.25-0.21l0.38-0.11l0.21-0.04h0.52l1.58,0.11l1.68-0.04l2.24,0.14l0.46,0.04l0.28,0.07l0.21,0.28
		l0.14,0.35l0.14,0.49l0.35,1.16l0.17,0.56l0.84,1.82l0.21,0.56l0.7,1.85l0.21,0.56l0.7,2.21l0.21,0.56l0.77,2.17l0.88,2.8
		l0.17,0.39l0.25,0.14l0.31-0.14l0.21-0.39l0.84-2.17l0.17-0.56l0.56-2.27l0.18-0.56l0.98-2.1l0.17-0.56l0.6-1.92l0.17-0.53
		l0.88-1.86l0.17-0.52l0.35-1.3l0.21-0.59l0.28-0.46l0.25-0.14l0.42-0.07h0.25l0.56-0.04l0.88,0.07H531l1.61-0.11l0.63,0.07
		l0.42,0.1l0.21,0.21L533.97,285.93z" fill="#231F20"/>
    <path d="M557.32,307.32l-0.04,0.56l-0.14,1.89l-0.04,0.35l-0.14,0.25l-0.17,0.14l-4.59,0.14h-0.56l-1.85-0.14
		l-0.56,0.04l-1.82,0.14l-0.56,0.04h-2.42l-1.82-0.14h-0.56l-3.01,0.17l-1.19-0.07l-0.42-0.07l-0.25-0.17l-0.1-0.25l-0.07-0.38
		l-0.07-0.81l-0.04-0.56l0.04-0.53v-0.53l0.14-1.85v-0.56l0.04-1.86l-0.04-0.56l-0.11-1.86l-0.04-0.56l0.07-1.89v-2.98l0.14-1.85
		l-0.03-0.56l-0.11-1.85l-0.04-0.56v-0.84l0.07-1.05v-0.52l0.1-1.82l0.04-0.49l0.11-0.28l0.17-0.14l0.28-0.04l0.46-0.07l2.28,0.14
		l2.13-0.04h0.56l2.1,0.14h0.56l2.1-0.14h0.56l4.76,0.07l0.6-0.04l1.19-0.11h0.88l0.49,0.11l0.21,0.17l0.07,0.25l0.07,0.46v0.95
		l-0.07,0.88v0.59l0.04,0.88l0.04,0.53l-0.04,0.53l-0.07,0.42l-0.14,0.25l-0.17,0.14l-0.42,0.07h-0.28l-0.56,0.03l-3.29-0.07h-0.56
		l-1.79,0.07h-0.56l-1.82-0.07l-1.58-0.11h-0.52l-0.28,0.04l-0.35,0.07l-0.17,0.17l-0.04,0.21l-0.07,0.38l-0.07,0.84v0.56l0.04,0.59
		l0.04,0.39l0.07,0.25l0.14,0.17l0.38,0.1l1.12,0.07l1.12-0.07h3.33l3.92-0.21l1.09,0.07l0.38,0.07l0.21,0.17l0.1,0.21l0.04,0.38
		l0.07,0.6l0.04,0.59v1.16l0.07,0.8l-0.07,1.05l-0.07,0.42l-0.14,0.25l-0.25,0.17l-0.35,0.07h-0.7l-1.58-0.17l-0.56-0.04l-2.8,0.18
		l-2.24-0.07h-0.56l-1.4-0.11l-0.6,0.04l-0.42,0.04l-0.17,0.11l-0.11,0.24l-0.04,0.53l-0.1,0.88l-0.04,0.56v0.77l0.04,0.35l0.1,0.25
		l0.14,0.14l0.38,0.04l1.93,0.07h0.56l1.89-0.14l2.49,0.14h0.56l2.49-0.14h0.52l0.53,0.04l1.26,0.14l0.21,0.11l0.14,0.21l0.04,0.38
		L557.32,307.32z" fill="#231F20"/>
    <path d="M568.38,308.23l-0.1,0.56l-0.17,0.56l-0.25,0.52l-0.32,0.49l-0.46,0.42l-0.49,0.28l-0.52,0.17l-0.56,0.07
		l-0.63,0.04h-0.63l-0.25-0.04l-0.53-0.04l-0.25-0.07l-0.56-0.17l-0.56-0.31l-0.46-0.35l-0.14-0.21l-0.31-0.38l-0.11-0.21
		l-0.21-0.46l-0.07-0.21l-0.1-0.49v-0.95l0.14-0.46l0.07-0.25l0.25-0.42l0.1-0.21l0.32-0.38l0.14-0.18l0.46-0.38l0.56-0.38
		l0.52-0.25l0.21-0.1l0.53-0.11h0.84l0.63,0.11l0.53,0.21l0.49,0.28l0.46,0.32l0.46,0.35l0.38,0.42l0.25,0.49l0.21,0.56l0.11,0.56
		L568.38,308.23z" fill="#FAAF40"/>
    <path d="M606.07,307.32l-0.04,0.56l-0.14,1.89l-0.03,0.35l-0.14,0.25l-0.17,0.14l-4.59,0.14h-0.56l-1.86-0.14
		l-0.56,0.04l-1.82,0.14l-0.56,0.04h-2.42l-1.82-0.14h-0.56l-3.01,0.17l-1.19-0.07l-0.42-0.07l-0.24-0.17l-0.11-0.25l-0.07-0.38
		L585.7,309l-0.04-0.56l0.04-0.53v-0.53l0.14-1.85v-0.56l0.04-1.86l-0.04-0.56l-0.11-1.86l-0.03-0.56l0.07-1.89v-2.98l0.14-1.85
		l-0.04-0.56l-0.11-1.85l-0.04-0.56v-0.84l0.07-1.05v-0.52l0.11-1.82l0.04-0.49l0.1-0.28l0.17-0.14l0.28-0.04l0.46-0.07l2.28,0.14
		l2.13-0.04h0.56l2.1,0.14h0.56l2.1-0.14h0.56l4.76,0.07l0.59-0.04l1.19-0.11h0.88l0.49,0.11l0.21,0.17l0.07,0.25l0.07,0.46v0.95
		l-0.07,0.88v0.59l0.04,0.88l0.04,0.53l-0.04,0.53l-0.07,0.42l-0.14,0.25l-0.17,0.14l-0.42,0.07h-0.28l-0.56,0.03l-3.29-0.07h-0.56
		l-1.79,0.07h-0.56l-1.82-0.07l-1.58-0.11h-0.52l-0.28,0.04l-0.35,0.07l-0.18,0.17l-0.03,0.21l-0.07,0.38l-0.07,0.84v0.56l0.04,0.59
		l0.04,0.39l0.07,0.25l0.14,0.17l0.38,0.1l1.12,0.07l1.12-0.07h3.33l3.92-0.21l1.08,0.07l0.38,0.07l0.21,0.17l0.11,0.21l0.04,0.38
		l0.07,0.6l0.04,0.59v1.16l0.07,0.8l-0.07,1.05l-0.07,0.42l-0.14,0.25l-0.25,0.17l-0.35,0.07h-0.7l-1.58-0.17l-0.56-0.04l-2.8,0.18
		l-2.24-0.07h-0.56l-1.4-0.11l-0.6,0.04l-0.42,0.04l-0.17,0.11l-0.1,0.24l-0.04,0.53l-0.11,0.88l-0.04,0.56v0.77l0.04,0.35
		l0.11,0.25l0.14,0.14l0.38,0.04l1.93,0.07h0.56l1.89-0.14l2.49,0.14h0.56l2.49-0.14h0.53l0.52,0.04l1.26,0.14l0.21,0.11l0.14,0.21
		l0.04,0.38L606.07,307.32z" fill="#231F20"/>
    <path d="M633.93,290.83l-0.03,0.56v5.18l0.1,2.03v0.56l0.07,4.62v0.6l-0.04,0.28l-0.04,0.59l-0.1,1.68l0.03,2.03
		l-0.03,0.49l-0.14,0.42l-0.28,0.39l-0.35,0.24l-0.31,0.11l-0.49,0.04l-1.79,0.07l-0.56,0.03l-0.88,0.04h-0.56l-0.46-0.1l-0.42-0.18
		l-0.42-0.31l-0.31-0.46l-0.53-1.02l-0.31-0.46l-1.37-1.71l-0.35-0.42l-1.37-1.68L622.7,304l-1.23-1.82l-0.31-0.42l-1.37-1.68
		l-0.35-0.42l-1.29-1.71l-0.32-0.28l-0.25,0.1l-0.1,0.42l-0.07,1.75v0.56l0.04,1.75v0.56l0.04,1.96v0.56l-0.11,1.96l0.04,0.56
		l0.21,1.4l0.04,0.56l-0.1,0.46l-0.25,0.24l-0.25,0.07l-0.42,0.07l-0.28,0.04l-0.59,0.04l-1.61-0.04h-0.56l-1.43,0.07h-0.56
		l-0.52-0.03l-0.39-0.07l-0.28-0.17l-0.14-0.25l-0.07-0.35l-0.03-0.25v-0.52l0.07-1.16l0.04-0.56l-0.1-1.85v-0.56l0.07-4.27
		l0.04-0.56l0.11-1.86l0.04-0.56v-2.42l-0.14-1.85v-0.56l0.14-1.86l-0.04-0.56l-0.14-1.89l-0.04-0.56v-0.81l0.04-0.52l0.07-0.53
		l0.07-0.38l0.1-0.25l0.21-0.11l0.39-0.07l1.05-0.07l1.05,0.07h2.62l0.42,0.03l0.17,0.14l0.21,0.31l1.47,1.58l0.35,0.42l1.29,1.68
		l0.35,0.42l1.3,1.72l0.35,0.42l1.26,1.75l0.32,0.42l1.33,1.68l0.35,0.42l1.26,1.75l0.28,0.25l0.28,0.04l0.25-0.18v-0.38l-0.25-1.47
		l-0.03-0.56l0.1-1.5v-0.56l-0.14-2.13v-0.56l0.14-2.13l-0.04-0.56l-0.1-1.29v-0.88l0.1-0.46l0.14-0.28l0.24-0.14l0.42-0.07h0.31
		l0.6-0.04l1.58,0.11h0.56l1.19-0.07l0.52,0.04l0.81,0.04l0.38,0.07l0.25,0.1l0.21,0.25l0.07,0.49l0.04,0.32l0.03,0.59l-0.07,1.08
		l-0.07,0.56L633.93,290.83z" fill="#231F20"/>
    <path d="M660.81,297.2l-0.04,0.56l0.07,1.79v0.6l-0.07,1.19l-0.11,0.88l-0.1,0.52l-0.21,0.81l-0.17,0.49l-0.25,0.74
		l-0.25,0.53l-0.28,0.52l-0.32,0.53l-0.52,0.67l-0.35,0.46l-0.52,0.56l-0.39,0.38l-0.59,0.53l-0.42,0.31l-0.67,0.42l-0.46,0.28
		l-0.74,0.35l-0.49,0.21l-0.8,0.25l-0.49,0.14l-0.8,0.14l-0.53,0.11l-0.88,0.07l-1.19,0.07l-0.59-0.04l-0.8-0.04l-1.79-0.25
		l-1.3-0.28l-1.22-0.39l-1.26-0.46l-0.67-0.35l-0.46-0.28l-0.63-0.49l-0.38-0.35l-0.53-0.59l-0.31-0.39l-0.42-0.67l-0.25-0.46
		l-0.35-0.73l-0.17-0.53l-0.35-1.12l-0.14-0.88l-0.1-0.56l-0.04-0.8l-0.04-0.59v-0.6l0.14-0.46l0.39-0.14l0.52-0.04h1.58l1.58,0.07
		l0.56-0.04l1.05-0.11l0.56-0.03l0.42,0.21l0.17,0.38l0.04,0.46l0.04,0.25l0.1,0.49l0.25,0.8l0.21,0.49l0.25,0.46l0.35,0.46
		l0.67,0.59l0.49,0.32l0.53,0.25l0.56,0.14l0.84,0.11l0.52-0.04l1.05-0.21l0.49-0.18l0.49-0.24l0.49-0.28l0.67-0.56l0.38-0.42
		l0.32-0.53l0.21-0.52l0.17-0.77l0.07-0.52l0.04-0.81v-0.52l0.04-2.1v-0.56l0.04-2.13v-0.56l0.03-2.1l0.04-0.49l-0.28-0.14
		l-1.61,0.1h-0.56l-1.58-0.1h-0.56l-1.12,0.1h-0.49l-0.42-0.17l-0.21-0.42v-0.21l-0.04-0.53l0.1-1.47v-0.56l-0.1-1.64l0.04-0.53
		l0.21-0.38l0.42-0.14h0.74l1.4,0.07h0.56l2.1-0.17l0.56-0.04l2.07,0.07h3.22l1.61-0.07h0.53l0.35,0.1l0.14,0.21l0.03,0.39
		l0.04,0.49l0.04,0.52l0.04,0.81l-0.04,0.56l-0.1,1.75v0.56l0.1,1.79l0.04,0.56l0.04,1.79l-0.04,0.56L660.81,297.2z"
          fill="#231F20"/>
    <path d="M692.52,297.69l-0.04,0.56l-0.07,0.81l-0.07,0.52l-0.21,1.05l-0.07,0.8l-0.07,0.53l-0.1,0.56l-0.14,0.53
		l-0.35,0.73l-0.25,0.49l-0.95,1.58l-0.31,0.46l-0.35,0.46l-0.35,0.38l-0.56,0.6l-0.38,0.35l-0.46,0.35l-0.42,0.31l-0.63,0.42
		l-0.46,0.28l-0.53,0.28l-0.49,0.21l-0.7,0.28l-0.52,0.14l-1.12,0.35l-0.6,0.17l-0.56,0.14l-0.6,0.14l-0.59,0.1l-0.59,0.04h-1.89
		l-1.19-0.07l-1.15-0.14l-0.49-0.11l-0.53-0.14l-1.89-0.63l-0.56-0.18l-0.59-0.24l-1.12-0.49l-0.53-0.28l-0.53-0.32l-0.45-0.35
		l-0.46-0.38l-0.42-0.46l-0.38-0.46l-0.95-0.95l-0.35-0.42l-0.35-0.46l-0.28-0.46l-0.28-0.7l-0.53-1.58l-0.21-0.74l-0.1-0.52
		l-0.11-0.56l-0.1-0.52l-0.11-0.77l-0.04-0.53l-0.04-0.59v-0.59l0.04-0.6l0.04-0.63l0.07-0.59l0.1-0.6l0.14-0.59l0.17-0.59
		l0.17-0.53l0.21-0.56l0.25-0.81l0.25-0.56l0.14-0.32l0.28-0.53l0.49-0.77l0.35-0.49l0.18-0.28l0.42-0.42l0.59-0.49l0.46-0.35
		l0.46-0.32l1.05-0.7l0.46-0.28l0.49-0.28l0.49-0.25l0.74-0.32l0.49-0.17l0.53-0.17l0.53-0.14l1.33-0.25l0.53-0.11l1.75-0.21
		l1.12-0.07l1.05,0.07l0.84,0.04l0.6,0.07l0.59,0.1l0.59,0.14l0.6,0.1l0.56,0.14l0.53,0.14l0.52,0.17l0.74,0.28l0.49,0.21l1.16,0.67
		l0.46,0.32l0.46,0.35l0.59,0.56l0.38,0.35l0.39,0.38l0.31,0.42l0.49,0.67l0.28,0.46l0.25,0.46l0.28,0.46l0.39,0.7l0.28,0.46
		l0.24,0.53l0.18,0.49l0.17,0.8l0.21,1.05l0.07,0.6l0.1,0.59L692.52,297.69z M683.98,302.24l0.32-0.49l0.35-0.77l0.21-0.53l0.17-0.8
		l0.07-0.53l0.07-0.84v-0.59l-0.04-0.6l-0.04-0.56l-0.21-1.05l-0.14-0.49l-0.39-0.77l-0.28-0.46l-0.49-0.63l-0.35-0.38l-0.52-0.56
		l-0.39-0.31l-0.91-0.53l-0.49-0.21l-0.56-0.17l-0.56-0.11l-1.12-0.07l-0.53,0.04l-0.77,0.04l-0.52,0.11l-0.91,0.25l-0.56,0.21
		l-0.8,0.42l-0.49,0.31l-0.56,0.49l-0.39,0.42l-0.38,0.53l-0.28,0.46l-0.1,0.21l-0.32,0.74l-0.17,0.52l-0.11,0.25l-0.1,0.49
		l-0.07,0.49l-0.04,0.49l-0.04,0.52v0.53l0.04,0.56l0.11,0.56l0.04,0.32l0.14,0.52l0.07,0.25l0.17,0.49l0.14,0.28l0.28,0.49
		l0.17,0.28l0.39,0.49l0.21,0.25l0.42,0.42l0.7,0.59l0.49,0.32l0.56,0.28l0.53,0.21l0.73,0.25l0.53,0.1l0.88,0.11l0.59,0.04
		l0.88-0.07l0.56-0.07l0.77-0.17l0.49-0.21l0.77-0.49l0.42-0.31l0.56-0.56l0.35-0.38L683.98,302.24z" fill="#231F20"/>
    <path d="M717.79,285.72l-0.21,0.32l-2.52,3.71l-0.35,0.46l-1.19,1.61l-0.32,0.46l-0.98,1.71l-0.32,0.49l-1.08,1.61
		l-0.35,0.49l-1.12,1.61l-0.35,0.46l-1.16,1.61l-0.14,0.28v2.83l0.14,1.89l-0.04,0.56l-0.14,1.89v0.56l0.14,1.47l0.04,0.49
		l-0.1,0.28l-0.14,0.14l-0.31,0.07h-2.31l-4.1-0.14l-0.14-0.1l-0.07-0.35v-4.31l-0.04-0.56l-0.14-1.89l-0.04-0.56l0.14-1.89
		l-0.07-0.31l-0.25-0.25l-0.95-1.68l-0.31-0.49l-1.12-1.58l-0.32-0.49l-1.02-1.68l-0.28-0.49l-2.45-3.71l-0.28-0.49l-1.05-1.65
		l-0.28-0.49l-1.02-1.68l-0.1-0.31l0.04-0.18l0.21-0.14h4.69l0.56,0.04l2.03,0.1l0.39,0.04l0.14,0.11l1.01,1.75l0.28,0.46l1.05,1.58
		l0.28,0.46l0.91,1.61l0.32,0.49l0.94,1.51l0.25,0.31l0.21,0.07l0.25-0.25l0.88-1.68l0.32-0.46l1.08-1.54l0.32-0.45l0.88-1.65
		l0.28-0.49l0.98-1.61l0.28-0.35l0.28-0.07l0.38,0.04l1.75,0.1h0.56l2.03-0.1h0.56l2,0.14l0.42,0.07l0.18,0.07L717.79,285.72z"
          fill="#231F20"/>
    <path d="M720.48,308.23l-0.1,0.56l-0.17,0.56l-0.25,0.52l-0.32,0.49l-0.46,0.42l-0.49,0.28l-0.52,0.17l-0.56,0.07
		l-0.63,0.04h-0.63l-0.25-0.04l-0.53-0.04l-0.25-0.07l-0.56-0.17l-0.56-0.31l-0.46-0.35l-0.14-0.21l-0.31-0.38l-0.11-0.21
		l-0.21-0.46l-0.07-0.21l-0.1-0.49v-0.95l0.14-0.46l0.07-0.25l0.25-0.42l0.1-0.21l0.32-0.38l0.14-0.18l0.46-0.38l0.56-0.38
		l0.52-0.25l0.21-0.1l0.53-0.11h0.84l0.63,0.11l0.53,0.21l0.49,0.28l0.46,0.32l0.46,0.35l0.38,0.42l0.25,0.49l0.21,0.56l0.11,0.56
		L720.48,308.23z" fill="#FAAF40"/>
</g>
</svg>
